<svg width="708" height="708" viewBox="0 0 708 708" fill="none" xmlns="http://www.w3.org/2000/svg">
<path d="M354 692.835C508.1 692.835 633.023 621.869 633.023 534.328C633.023 446.787 508.1 375.821 354 375.821C199.9 375.821 74.9771 446.787 74.9771 534.328C74.9771 621.869 199.9 692.835 354 692.835Z" fill="#F5F5F5"/>
<path d="M470.112 634.269L261.833 514.008C260.001 512.953 258.479 511.433 257.421 509.602C256.363 507.771 255.806 505.694 255.806 503.579C255.806 501.465 256.363 499.388 257.421 497.557C258.479 495.726 260.001 494.206 261.833 493.151L282.379 480.194C285.926 478.151 289.947 477.076 294.04 477.076C298.133 477.076 302.154 478.151 305.701 480.194L514.008 600.469C515.841 601.525 517.362 603.045 518.42 604.875C519.479 606.706 520.036 608.783 520.036 610.898C520.036 613.013 519.479 615.09 518.42 616.921C517.362 618.751 515.841 620.271 514.008 621.327L493.462 634.269C489.914 636.323 485.887 637.404 481.787 637.404C477.688 637.404 473.661 636.323 470.112 634.269Z" fill="#E0E0E0"/>
<path d="M153.424 524.628C178.386 524.628 198.623 513.008 198.623 498.673C198.623 484.338 178.386 472.718 153.424 472.718C128.461 472.718 108.225 484.338 108.225 498.673C108.225 513.008 128.461 524.628 153.424 524.628Z" fill="#E6E6E6"/>
<path d="M543.97 530.575L563.794 541.974C563.794 541.974 553.67 510.157 559.065 478.084C561.104 465.963 565.479 459.945 567.009 456.703C568.538 453.46 580.39 433.424 569.841 424.248C559.292 415.072 534.752 433.523 536.083 482.899C536.688 499.06 539.339 515.08 543.97 530.575Z" fill="#0F3E6E"/>
<path opacity="0.5" d="M543.97 530.575L563.794 541.974C563.794 541.974 553.67 510.157 559.065 478.084C561.104 465.963 565.479 459.945 567.009 456.703C568.538 453.46 580.39 433.424 569.841 424.248C559.292 415.072 534.752 433.523 536.083 482.899C536.688 499.06 539.339 515.08 543.97 530.575Z" fill="black"/>
<path d="M553.189 536.579C553.044 536.582 552.903 536.54 552.783 536.459C552.664 536.378 552.573 536.261 552.523 536.126C552.452 535.914 544.877 515.212 545.117 481.936C545.358 448.66 562.846 430.591 563.016 430.422C563.081 430.355 563.16 430.303 563.246 430.267C563.332 430.231 563.425 430.212 563.518 430.212C563.612 430.212 563.704 430.231 563.791 430.267C563.877 430.303 563.955 430.355 564.021 430.422C564.087 430.487 564.14 430.566 564.176 430.652C564.212 430.738 564.23 430.831 564.23 430.924C564.23 431.018 564.212 431.11 564.176 431.197C564.14 431.283 564.087 431.361 564.021 431.427C563.851 431.597 546.774 449.127 546.533 481.95C546.293 514.773 553.769 535.446 553.854 535.645C553.918 535.821 553.909 536.016 553.829 536.186C553.75 536.356 553.606 536.487 553.429 536.551C553.352 536.575 553.27 536.584 553.189 536.579Z" fill="white"/>
<path d="M552.24 535.446L579.342 551.022C582.166 552.692 585.515 553.235 588.722 552.545C591.929 551.855 594.758 549.981 596.646 547.298C598.44 544.507 599.196 541.174 598.784 537.882C597.481 523.807 591.364 520.564 598.855 514.291C606.345 508.018 608.299 507.579 607.875 501.547C607.45 495.515 603.329 492.881 601.375 490.502C599.421 488.123 594.012 483.139 597.693 475.776C601.375 468.413 606.402 461.29 598.784 458.034C594.238 456.079 586.663 458.685 581.679 464.094C576.694 469.503 572.588 473.397 567.816 474.7C563.044 476.003 553.104 476.215 553.528 484.442C553.953 492.669 556.134 495.487 554.18 499.154C550.498 506.008 534.483 509.902 552.24 535.446Z" fill="#0F3E6E"/>
<path d="M565.635 543.829C565.459 543.823 565.29 543.754 565.16 543.635C565.03 543.515 564.948 543.353 564.927 543.178C564.927 542.696 560.764 494.099 594.182 461.758C594.32 461.644 594.495 461.586 594.674 461.597C594.852 461.607 595.02 461.685 595.144 461.814C595.267 461.943 595.338 462.114 595.34 462.292C595.343 462.471 595.278 462.644 595.159 462.777C562.223 494.651 566.301 542.569 566.343 543.05C566.359 543.236 566.301 543.42 566.182 543.563C566.063 543.707 565.892 543.797 565.706 543.815L565.635 543.829Z" fill="white"/>
<path d="M571.002 502C570.823 502.001 570.651 501.934 570.52 501.813C570.389 501.693 570.308 501.527 570.294 501.349C569.997 497.583 568.937 493.917 567.176 490.574C565.416 487.232 562.994 484.283 560.056 481.907C559.98 481.854 559.914 481.785 559.864 481.706C559.814 481.627 559.78 481.539 559.765 481.447C559.749 481.355 559.751 481.261 559.772 481.169C559.793 481.078 559.832 480.992 559.886 480.916C559.939 480.84 560.006 480.775 560.083 480.725C560.161 480.675 560.248 480.642 560.339 480.626C560.43 480.61 560.523 480.612 560.613 480.633C560.703 480.654 560.788 480.692 560.863 480.746C563.994 483.229 566.574 486.334 568.441 489.866C570.308 493.398 571.421 497.279 571.71 501.264C571.726 501.453 571.666 501.641 571.544 501.787C571.422 501.933 571.248 502.025 571.058 502.043L571.002 502Z" fill="white"/>
<path d="M568.694 510.341C568.523 510.342 568.357 510.282 568.226 510.171C568.086 510.045 568 509.87 567.987 509.682C567.973 509.495 568.034 509.309 568.156 509.165C568.495 508.769 576.864 499.537 596.476 501.986C596.661 502.011 596.83 502.108 596.944 502.257C597.058 502.405 597.109 502.593 597.085 502.779C597.06 502.966 596.963 503.136 596.815 503.252C596.667 503.368 596.479 503.422 596.292 503.402C577.459 501.037 569.288 510.015 569.203 510.1C569.139 510.172 569.061 510.231 568.973 510.272C568.885 510.313 568.79 510.337 568.694 510.341Z" fill="white"/>
<path d="M463.768 619.897L280.594 514.136C267.666 506.673 257.188 486.651 257.188 469.418V77.1864C257.188 59.9536 267.666 52.0382 280.594 59.5005L463.768 165.262C476.696 172.724 487.175 192.746 487.175 209.979V602.211C487.175 619.429 476.696 627.359 463.768 619.897Z" fill="#455A64"/>
<path d="M484.867 152.928L301.679 47.1671C296.156 43.9811 291.087 43.6129 287.08 45.567C286.589 45.8127 286.116 46.0918 285.664 46.4024L265.132 58.3393C269.267 55.8613 274.676 56.0454 280.609 59.4721L463.782 165.233C476.711 172.695 487.189 192.718 487.189 209.95V602.182C487.189 611.301 484.258 617.758 479.585 620.817L499.848 609.022C505.016 606.275 508.344 599.549 508.344 589.906V197.674C508.344 180.413 497.795 160.39 484.867 152.928Z" fill="#37474F"/>
<path d="M487.175 209.951V602.183C487.175 611.302 484.244 617.759 479.571 620.817L499.848 609.022C505.016 606.275 508.344 599.549 508.344 589.906V197.674L487.246 209.922L487.175 209.951Z" fill="#263238"/>
<path d="M508.273 228.104L487.175 240.281V249.797L508.273 237.605V228.104Z" fill="#37474F"/>
<path d="M499.027 291.385C497.144 292.475 495.614 291.314 495.614 288.808V268.346C495.633 267.067 495.952 265.811 496.545 264.677C497.137 263.543 497.987 262.564 499.027 261.819C500.91 260.728 502.439 261.819 502.439 264.396V284.857C502.42 286.136 502.102 287.393 501.509 288.526C500.916 289.66 500.066 290.639 499.027 291.385Z" fill="#37474F"/>
<path d="M495.6 288.864V268.346C495.619 267.067 495.938 265.811 496.53 264.677C497.123 263.543 497.973 262.564 499.013 261.819C499.323 261.601 499.685 261.469 500.062 261.434C500.44 261.399 500.82 261.463 501.165 261.62L498.602 260.303C498.251 260.135 497.863 260.062 497.475 260.091C497.087 260.121 496.714 260.253 496.393 260.473C495.353 261.219 494.501 262.198 493.906 263.331C493.311 264.465 492.989 265.721 492.966 267.001V287.448C492.913 287.965 492.992 288.486 493.195 288.964C493.398 289.442 493.719 289.861 494.127 290.181L496.804 291.597C496.378 291.29 496.041 290.875 495.83 290.394C495.618 289.914 495.539 289.386 495.6 288.864Z" fill="#455A64"/>
<path d="M499.027 340.902C497.144 341.992 495.614 340.902 495.614 338.325V317.864C495.634 316.585 495.954 315.328 496.546 314.195C497.139 313.062 497.988 312.082 499.027 311.336C500.91 310.246 502.439 311.336 502.439 313.927V334.374C502.422 335.654 502.105 336.911 501.512 338.045C500.919 339.179 500.068 340.158 499.027 340.902Z" fill="#37474F"/>
<path d="M495.6 338.325V317.864C495.62 316.585 495.939 315.328 496.532 314.195C497.124 313.062 497.974 312.082 499.012 311.336C499.325 311.123 499.686 310.992 500.063 310.958C500.439 310.923 500.819 310.985 501.165 311.138L498.602 309.807C498.253 309.631 497.863 309.553 497.474 309.583C497.084 309.613 496.71 309.749 496.393 309.977C495.35 310.72 494.497 311.698 493.901 312.832C493.306 313.966 492.986 315.224 492.966 316.504V337.008C492.912 337.525 492.99 338.047 493.193 338.525C493.396 339.003 493.717 339.421 494.127 339.741L496.803 341.157C496.36 340.843 496.013 340.412 495.8 339.912C495.588 339.411 495.518 338.862 495.6 338.325Z" fill="#455A64"/>
<path d="M457.368 176.264L277.366 72.3012C276.615 71.869 275.764 71.6408 274.897 71.6392C274.03 71.6376 273.178 71.8626 272.425 72.292C271.673 72.7214 271.045 73.3402 270.605 74.0869C270.165 74.8337 269.928 75.6825 269.918 76.5492V469.418C269.918 482.531 279.221 498.63 290.577 505.187L466.161 606.615C466.994 607.094 467.938 607.346 468.899 607.345C469.86 607.344 470.803 607.091 471.635 606.61C472.467 606.13 473.158 605.439 473.639 604.607C474.119 603.775 474.373 602.832 474.374 601.871V205.759C474.445 194.941 466.77 181.673 457.368 176.264Z" fill="#0F3E6E"/>
<path opacity="0.9" d="M457.368 176.264L277.366 72.3012C276.615 71.869 275.764 71.6408 274.897 71.6392C274.03 71.6376 273.178 71.8626 272.425 72.292C271.673 72.7214 271.045 73.3402 270.605 74.0869C270.165 74.8337 269.928 75.6825 269.918 76.5492V469.418C269.918 482.531 279.221 498.63 290.577 505.187L466.161 606.615C466.994 607.094 467.938 607.346 468.899 607.345C469.86 607.344 470.803 607.091 471.635 606.61C472.467 606.13 473.158 605.439 473.639 604.607C474.119 603.775 474.373 602.832 474.374 601.871V205.759C474.445 194.941 466.77 181.673 457.368 176.264Z" fill="white"/>
<path d="M331.202 99.4458L333.992 111.184L393.662 145.593L403.97 140.099L331.202 99.4458Z" fill="#455A64"/>
<path d="M348.747 110.788C348.747 112.742 347.331 113.521 345.688 112.558C344.806 111.973 344.074 111.188 343.55 110.269C343.026 109.349 342.726 108.319 342.672 107.262C342.672 105.322 344.088 104.529 345.73 105.506C346.612 106.089 347.344 106.87 347.868 107.788C348.392 108.705 348.693 109.733 348.747 110.788Z" fill="#263238"/>
<path d="M388.947 135.639C388.62 135.636 388.299 135.554 388.012 135.398L357.54 118.406C357.109 118.153 356.795 117.743 356.664 117.261C356.532 116.78 356.594 116.266 356.836 115.83C357.079 115.394 357.482 115.07 357.96 114.926C358.438 114.783 358.953 114.833 359.395 115.064L389.881 132.056C390.252 132.262 390.543 132.586 390.71 132.976C390.877 133.365 390.909 133.8 390.802 134.21C390.695 134.62 390.455 134.983 390.119 135.242C389.783 135.5 389.371 135.64 388.947 135.639Z" fill="#263238"/>
<path d="M307.668 154.061C305.813 152.985 304.468 153.919 304.468 156.284C304.468 157.467 304.76 158.631 305.319 159.673C305.877 160.716 306.684 161.604 307.668 162.26C308.196 162.58 308.8 162.749 309.417 162.749C310.034 162.749 310.639 162.58 311.166 162.26L314.125 167.612C313.084 168.186 311.904 168.46 310.716 168.403C309.528 168.345 308.38 167.959 307.399 167.286C304.995 165.815 302.99 163.774 301.563 161.344C300.135 158.914 299.329 156.169 299.215 153.353C299.215 148.1 302.741 146.273 307.598 149.105C310.34 150.871 312.587 153.308 314.125 156.185L311.166 158.535C310.436 156.749 309.225 155.2 307.668 154.061Z" fill="#0F3E6E"/>
<path d="M331.16 171.803C331.16 177.099 327.577 178.883 322.664 176.051C320.191 174.574 318.122 172.508 316.639 170.037C315.157 167.567 314.308 164.769 314.168 161.891C314.168 156.596 317.75 154.811 322.664 157.643C325.143 159.115 327.217 161.179 328.7 163.651C330.183 166.122 331.028 168.924 331.16 171.803ZM319.421 165.049C319.446 166.265 319.76 167.457 320.336 168.528C320.912 169.599 321.734 170.518 322.735 171.209C324.491 172.228 325.907 171.209 325.907 168.802C325.902 167.613 325.611 166.443 325.059 165.391C324.507 164.339 323.71 163.435 322.735 162.755C320.951 161.722 319.421 162.599 319.421 165.049Z" fill="#0F3E6E"/>
<path d="M336.866 166.182L342.983 178.926V169.75L347.614 172.426V190.282L343.366 187.818L337.277 175.188V184.307L332.618 181.616V163.718L336.866 166.182Z" fill="#0F3E6E"/>
<path d="M362.751 181.121V185.794L358.333 183.245V196.442L353.221 193.482V180.285L348.832 177.751V173.092L362.751 181.121Z" fill="#0F3E6E"/>
<path d="M372.72 202.219L366.914 198.863L366.121 200.93L360.882 197.9L367.41 183.811L372.663 186.841L378.95 208.336L373.498 205.193L372.72 202.219ZM371.459 197.263L369.873 191.16L368.245 195.408L371.459 197.263Z" fill="#0F3E6E"/>
<path d="M387.063 199.897C385.208 198.835 383.863 199.755 383.863 202.134C383.866 203.316 384.159 204.48 384.717 205.522C385.275 206.564 386.081 207.452 387.063 208.11C387.594 208.426 388.201 208.594 388.819 208.594C389.437 208.594 390.044 208.426 390.575 208.11L393.535 213.462C392.489 214.03 391.307 214.3 390.119 214.243C388.93 214.185 387.78 213.803 386.794 213.136C384.388 211.664 382.382 209.621 380.955 207.188C379.527 204.755 378.722 202.008 378.61 199.189C378.61 193.935 382.15 192.109 386.993 194.941C389.732 196.716 391.981 199.15 393.535 202.021L390.575 204.357C389.829 202.58 388.616 201.039 387.063 199.897Z" fill="#0F3E6E"/>
<path d="M407.496 206.963V211.621L403.078 209.072V222.312L397.967 219.353V206.155L393.577 203.621V198.962L407.496 206.963Z" fill="#0F3E6E"/>
<path d="M422.605 228.882C423.865 229.605 424.828 229.038 424.828 227.268V216.974L429.954 219.919V230.213C429.954 234.957 427.122 236.373 422.591 233.782C420.408 232.569 418.573 230.817 417.261 228.692C415.95 226.567 415.205 224.141 415.1 221.647V211.352L420.226 214.312V224.606C420.246 225.458 420.473 226.293 420.887 227.038C421.302 227.783 421.891 228.416 422.605 228.882Z" fill="#0F3E6E"/>
<path d="M438.209 228.939C437.629 228.613 437.261 228.599 437.261 229.137C437.261 231.374 445.261 234.603 445.261 241.074C445.261 245.039 442.245 245.053 438.762 243.042C435.7 241.166 433.062 238.673 431.016 235.722L432.914 232.38C434.47 234.791 436.469 236.885 438.804 238.554C439.555 238.993 440.036 238.993 440.036 238.355C440.036 236.033 432.021 232.946 432.021 226.673C432.021 223.105 434.627 222.425 438.648 224.691C441.239 226.258 443.519 228.288 445.374 230.681L443.519 234.107C441.987 232.156 440.201 230.418 438.209 228.939Z" fill="#0F3E6E"/>
<path d="M281.912 242.051C287.657 234.995 290.549 226.041 290.017 216.957C289.485 207.873 285.568 199.318 279.039 192.98C272.509 186.643 263.842 182.982 254.746 182.721C245.65 182.46 236.787 185.618 229.904 191.57C223.022 197.523 218.621 205.84 217.569 214.878C216.517 223.917 218.891 233.021 224.222 240.396C229.554 247.77 237.455 252.878 246.368 254.713C255.281 256.548 264.557 254.975 272.368 250.306L290.096 258.009L281.912 242.051Z" fill="#0F3E6E"/>
<path opacity="0.4" d="M281.912 242.051C287.657 234.995 290.549 226.041 290.017 216.957C289.485 207.873 285.568 199.318 279.039 192.98C272.509 186.643 263.842 182.982 254.746 182.721C245.65 182.46 236.787 185.618 229.904 191.57C223.022 197.523 218.621 205.84 217.569 214.878C216.517 223.917 218.891 233.021 224.222 240.396C229.554 247.77 237.455 252.878 246.368 254.713C255.281 256.548 264.557 254.975 272.368 250.306L290.096 258.009L281.912 242.051Z" fill="black"/>
<path d="M240.225 217.13C240.225 216.577 239.828 216.266 239.106 216.266C237.431 216.485 235.866 217.223 234.631 218.376L232.621 214.468C234.737 212.875 237.294 211.975 239.941 211.89C243.34 211.89 245.917 213.675 245.917 216.337C245.917 218.234 244.501 220.061 242.688 221.887L240.154 224.394H246.143V228.557H233.272V225.144L239.007 219.211C239.624 218.665 240.051 217.936 240.225 217.13Z" fill="white"/>
<path d="M256.622 212.131L252.714 221.505H254.314V218.347H259.242V221.505H261.111V225.371H259.242V228.557H254.314V225.371H247.305V221.859L251.553 212.131H256.622Z" fill="white"/>
<path d="M276.318 220.386V228.557H271.051V221.902C271.081 221.685 271.065 221.464 271.002 221.254C270.94 221.044 270.834 220.85 270.69 220.685C270.546 220.52 270.369 220.388 270.17 220.297C269.971 220.207 269.754 220.16 269.536 220.16C268.502 220.16 267.851 220.967 267.851 222.213V228.557H262.583V211.197H267.851V217.583C268.263 216.931 268.837 216.398 269.517 216.036C270.197 215.674 270.96 215.494 271.73 215.515C272.362 215.499 272.989 215.616 273.572 215.859C274.155 216.102 274.68 216.465 275.113 216.925C275.547 217.385 275.878 217.931 276.085 218.527C276.293 219.124 276.372 219.757 276.318 220.386Z" fill="white"/>
<path d="M448.079 351.961V527.899C448.082 529.889 447.561 531.844 446.568 533.569C445.575 535.293 444.145 536.726 442.422 537.722C440.7 538.718 438.745 539.243 436.755 539.244C434.765 539.244 432.81 538.721 431.087 537.726L336.328 483.012L319.534 473.326C313.752 469.983 308.948 465.18 305.603 459.397C302.258 453.615 300.49 447.056 300.475 440.376V264.424C300.472 262.434 300.993 260.478 301.987 258.754C302.98 257.03 304.409 255.597 306.132 254.601C307.854 253.605 309.809 253.08 311.799 253.079C313.789 253.078 315.744 253.602 317.467 254.597L429.048 319.011C434.833 322.349 439.638 327.152 442.978 332.936C446.319 338.72 448.078 345.281 448.079 351.961Z" fill="#0F3E6E"/>
<path opacity="0.5" d="M448.079 351.961V527.899C448.082 529.889 447.561 531.844 446.568 533.569C445.575 535.293 444.145 536.726 442.422 537.722C440.7 538.718 438.745 539.243 436.755 539.244C434.765 539.244 432.81 538.721 431.087 537.726L336.328 483.012L319.534 473.326C313.752 469.983 308.948 465.18 305.603 459.397C302.258 453.615 300.49 447.056 300.475 440.376V264.424C300.472 262.434 300.993 260.478 301.987 258.754C302.98 257.03 304.409 255.597 306.132 254.601C307.854 253.605 309.809 253.08 311.799 253.079C313.789 253.078 315.744 253.602 317.467 254.597L429.048 319.011C434.833 322.349 439.638 327.152 442.978 332.936C446.319 338.72 448.078 345.281 448.079 351.961Z" fill="white"/>
<path d="M393.492 456.065C393.492 456.065 411.235 485.49 398.42 518.667L336.286 483.012L393.492 456.065Z" fill="#263238"/>
<path d="M421.788 323.864C423.13 312.958 415.379 303.029 404.473 301.686C393.568 300.344 383.639 308.095 382.296 319.001C380.953 329.906 388.705 339.835 399.61 341.178C410.516 342.521 420.445 334.769 421.788 323.864Z" fill="#263238"/>
<path d="M402.144 265.627C402.144 265.627 408.247 255.715 410.116 256.438C411.985 257.16 408.898 266.604 408.898 266.604C408.898 266.604 418.131 268.53 416.417 270.852C414.704 273.175 403.418 272.622 403.418 272.622L402.144 265.627Z" fill="#263238"/>
<path d="M406.392 291.172C402.144 323.089 375.24 323.089 375.24 323.089L318.883 298.28C318.883 298.28 314.635 294.556 313.332 286.004C312.833 282.5 312.833 278.944 313.332 275.44C313.332 275.44 313.332 275.37 313.332 275.341C315.131 261.918 325.17 247.488 347.033 243.056C351.824 242.089 356.702 241.615 361.59 241.64C363.954 241.632 366.318 241.75 368.67 241.994C385.662 243.665 397.57 251.595 403.248 263.928C404.526 266.712 405.476 269.634 406.08 272.637C407.233 278.753 407.338 285.021 406.392 291.172Z" fill="#263238"/>
<path d="M271.093 352.91C271.093 352.91 251.085 352.216 243.382 371.714C243.382 371.714 251.878 377.449 263.022 371.714C274.166 365.979 271.093 352.91 271.093 352.91Z" fill="#0F3E6E"/>
<path opacity="0.5" d="M271.093 352.91C271.093 352.91 251.085 352.216 243.382 371.714C243.382 371.714 251.878 377.449 263.022 371.714C274.166 365.979 271.093 352.91 271.093 352.91Z" fill="black"/>
<path d="M270.527 362.298C270.527 362.298 264.863 337.688 261.875 337.39C258.887 337.093 258.307 344.895 258.547 349.299L251.467 334.063C251.243 333.589 250.924 333.167 250.529 332.822C250.135 332.476 249.675 332.215 249.176 332.055C248.677 331.894 248.151 331.837 247.629 331.888C247.107 331.939 246.602 332.096 246.143 332.349C239.063 336.243 226.645 348.081 252.827 377.35L270.527 362.298Z" fill="#945959"/>
<path d="M343.026 345.277L338.778 344.725C334.497 344.158 330.142 344.74 326.16 346.412C322.178 348.084 318.714 350.786 316.122 354.241L290.846 387.885L271.022 352.91C271.022 352.91 268.643 376.699 243.311 371.714L270.512 417.493C272.234 420.392 274.63 422.831 277.497 424.604C280.363 426.378 283.616 427.432 286.978 427.678C290.34 427.924 293.711 427.355 296.806 426.018C299.9 424.681 302.626 422.616 304.751 420L328.03 391.382L343.026 345.277Z" fill="#0F3E6E"/>
<path d="M396.976 423.795C391.312 438.153 390.689 440.956 394.144 448.136C396.55 453.438 398.446 458.957 399.808 464.618C399.808 464.618 373.555 494.042 336.187 483.026L319.393 473.34C315.901 471.326 312.755 468.764 310.076 465.751L315.188 427.632C315.445 425.625 315.241 423.587 314.593 421.671L309.226 405.939C306.607 398.255 306.218 389.987 308.102 382.091C309.986 374.195 314.068 366.994 319.874 361.321L337.914 343.691L385.294 349.752L392.374 351.777C397.009 353.117 401.004 356.085 403.626 360.136C406.249 364.186 407.321 369.046 406.647 373.824C404.325 390.533 400.53 414.775 396.976 423.795Z" fill="#0F3E6E"/>
<path opacity="0.5" d="M396.976 423.795C391.312 438.153 390.689 440.956 394.144 448.136C396.55 453.438 398.446 458.957 399.808 464.618C399.808 464.618 373.555 494.042 336.187 483.026L319.393 473.34C315.901 471.326 312.755 468.764 310.076 465.751L315.188 427.632C315.445 425.625 315.241 423.587 314.593 421.671L309.226 405.939C306.607 398.255 306.218 389.987 308.102 382.091C309.986 374.195 314.068 366.994 319.874 361.321L337.914 343.691L385.294 349.752L392.374 351.777C397.009 353.117 401.004 356.085 403.626 360.136C406.249 364.186 407.321 369.046 406.647 373.824C404.325 390.533 400.53 414.775 396.976 423.795Z" fill="black"/>
<path d="M368.401 380.904L358.914 372.819C357.909 371.959 356.697 371.376 355.399 371.128C354.1 370.88 352.759 370.974 351.508 371.403L340.038 375.353L338.495 368.925C338.254 367.925 337.813 366.983 337.199 366.158C336.584 365.333 335.809 364.641 334.92 364.124C334.031 363.606 333.046 363.275 332.025 363.148C331.004 363.022 329.968 363.103 328.979 363.388L324.009 364.804L332.42 348.69C335.167 343.442 339.397 339.118 344.584 336.258L347.883 334.445L375.141 335.861C375.141 335.861 385.294 340.109 385.294 349.667L368.401 380.819" fill="#0F3E6E"/>
<path d="M375.254 347.939L347.925 369.236V301.424H375.254V347.939Z" fill="#945959"/>
<path d="M348.35 342.346L340.038 375.41L375.141 347.939L348.35 342.346Z" fill="#945959"/>
<path d="M347.925 337.433C354.002 335.176 359.557 331.708 364.253 327.239C368.948 322.77 372.686 317.393 375.24 311.435V301.424H347.911L347.925 337.433Z" fill="#703838"/>
<path d="M353.816 251.17C343.451 251.17 321.418 256.947 318.869 284.078C316.32 311.209 318.784 332.222 332.774 334.261C346.764 336.3 379.276 326.147 383.637 291.031C387.998 255.914 363.912 251.17 353.816 251.17Z" fill="#945959"/>
<path d="M337.503 295.562V311.548L328.129 308.674L337.503 295.562Z" fill="#703838"/>
<path d="M347.925 301.58C349.724 301.58 351.182 300.122 351.182 298.323C351.182 296.524 349.724 295.066 347.925 295.066C346.127 295.066 344.668 296.524 344.668 298.323C344.668 300.122 346.127 301.58 347.925 301.58Z" fill="#263238"/>
<path d="M329.744 296.057C329.741 296.701 329.548 297.329 329.188 297.863C328.829 298.397 328.319 298.812 327.724 299.056C327.128 299.3 326.474 299.363 325.843 299.236C325.212 299.108 324.633 298.797 324.179 298.341C323.725 297.885 323.417 297.305 323.292 296.673C323.168 296.042 323.233 295.388 323.48 294.794C323.727 294.199 324.144 293.692 324.679 293.334C325.215 292.977 325.844 292.786 326.487 292.786C326.916 292.786 327.341 292.871 327.737 293.036C328.133 293.2 328.493 293.441 328.795 293.745C329.098 294.049 329.337 294.41 329.5 294.807C329.663 295.203 329.746 295.628 329.744 296.057Z" fill="#263238"/>
<path d="M322.508 289.26L328.88 285.48C328.88 285.48 326.445 282.945 324.009 284.46C321.574 285.975 322.508 289.26 322.508 289.26Z" fill="#263238"/>
<path d="M333.1 318.034C336.203 318.26 339.291 317.432 341.865 315.683C341.865 315.683 342.474 320.313 338.594 321.191C334.714 322.069 333.1 318.034 333.1 318.034Z" fill="#703838"/>
<path d="M327.535 260.402C327.535 260.402 331.429 297.856 382.363 299.031C382.363 299.031 397.755 261.804 367.339 249.712C336.923 237.619 327.535 260.402 327.535 260.402Z" fill="#263238"/>
<path d="M397.358 293.424L391.099 289.799C388.72 288.383 385.435 288.581 381.796 290.677C374.575 294.84 368.712 304.992 368.712 313.333C368.712 317.51 370.128 320.413 372.564 321.829L378.709 325.369L379.063 325.567L379.276 325.694C381.598 326.827 384.699 326.558 388.112 324.59C395.333 320.342 401.195 310.274 401.195 301.934C401.153 297.714 399.694 294.797 397.358 293.424Z" fill="#0F3E6E"/>
<path d="M397.308 314.751C402.415 305.906 402.415 296.346 397.309 293.398C392.202 290.449 383.923 295.23 378.816 304.075C373.709 312.92 373.709 322.48 378.816 325.428C383.922 328.377 392.202 323.596 397.308 314.751Z" fill="#0F3E6E"/>
<path opacity="0.5" d="M397.308 314.751C402.415 305.906 402.415 296.346 397.309 293.398C392.202 290.449 383.923 295.23 378.816 304.075C373.709 312.92 373.709 322.48 378.816 325.428C383.922 328.377 392.202 323.596 397.308 314.751Z" fill="black"/>
<path d="M399.864 301.282L395.616 298.804C394.002 297.842 391.75 297.969 389.258 299.399C386.655 301.1 384.488 303.39 382.934 306.084C381.379 308.778 380.48 311.799 380.309 314.904C380.309 317.736 381.314 319.761 382.943 320.696L387.191 323.117C387.266 323.172 387.347 323.22 387.432 323.259L387.573 323.344C388.569 323.721 389.642 323.849 390.699 323.716C391.755 323.583 392.763 323.192 393.634 322.579C396.235 320.879 398.401 318.591 399.955 315.9C401.51 313.21 402.41 310.191 402.583 307.088C402.469 304.213 401.478 302.217 399.864 301.282Z" fill="#0F3E6E"/>
<path d="M402.47 307.06C402.296 310.162 401.396 313.181 399.842 315.872C398.287 318.563 396.122 320.851 393.52 322.551C388.564 325.383 384.557 323.089 384.557 317.382C384.725 314.277 385.625 311.254 387.182 308.562C388.74 305.87 390.912 303.585 393.52 301.891C398.462 299.031 402.47 301.339 402.47 307.06Z" fill="#0F3E6E"/>
<path opacity="0.3" d="M402.47 307.06C402.296 310.162 401.396 313.181 399.842 315.872C398.287 318.563 396.122 320.851 393.52 322.551C388.564 325.383 384.557 323.089 384.557 317.382C384.725 314.277 385.625 311.254 387.182 308.562C388.74 305.87 390.912 303.585 393.52 301.891C398.462 299.031 402.47 301.339 402.47 307.06Z" fill="black"/>
<path d="M377.916 243.864C373.857 240.728 368.885 239.003 363.756 238.95H362.496C357.302 238.894 352.116 239.368 347.019 240.366C347.954 240.366 348.888 240.366 349.851 240.366H347.019V243H349.653C358.73 243.308 367.331 247.135 373.638 253.669C379.946 260.204 383.465 268.935 383.453 278.017V289.161C383.452 289.602 383.545 290.038 383.723 290.44C383.902 290.843 384.164 291.203 384.491 291.498C384.818 291.793 385.203 292.016 385.622 292.153C386.041 292.289 386.484 292.336 386.922 292.291H387.248L390.08 291.413C389.891 291.472 389.696 291.51 389.499 291.526C390.343 291.411 391.116 290.99 391.67 290.343C392.223 289.695 392.519 288.866 392.501 288.014V277.678C392.473 258.972 384.387 248.919 377.916 243.864Z" fill="#0F3E6E"/>
<path d="M360.089 333.482C358.921 333.482 357.767 333.231 356.704 332.746L347.854 328.654C347.716 328.604 347.589 328.526 347.483 328.425C347.376 328.324 347.291 328.202 347.234 328.067C347.176 327.932 347.148 327.786 347.15 327.639C347.152 327.492 347.185 327.347 347.246 327.213C347.307 327.079 347.395 326.96 347.504 326.862C347.614 326.764 347.743 326.69 347.882 326.644C348.022 326.598 348.17 326.582 348.316 326.597C348.462 326.611 348.604 326.656 348.732 326.728L357.582 330.82C358.711 331.345 359.975 331.504 361.199 331.276C362.423 331.047 363.544 330.442 364.407 329.546L372.903 320.766C373.103 320.568 373.373 320.456 373.654 320.456C373.935 320.456 374.205 320.568 374.404 320.766C374.6 320.967 374.709 321.237 374.709 321.517C374.709 321.797 374.6 322.066 374.404 322.267L365.908 331.047C365.152 331.823 364.247 332.439 363.247 332.858C362.247 333.276 361.173 333.489 360.089 333.482Z" fill="#0F3E6E"/>
<path opacity="0.5" d="M360.089 333.482C358.921 333.482 357.767 333.231 356.704 332.746L347.854 328.654C347.716 328.604 347.589 328.526 347.483 328.425C347.376 328.324 347.291 328.202 347.234 328.067C347.176 327.932 347.148 327.786 347.15 327.639C347.152 327.492 347.185 327.347 347.246 327.213C347.307 327.079 347.395 326.96 347.504 326.862C347.614 326.764 347.743 326.69 347.882 326.644C348.022 326.598 348.17 326.582 348.316 326.597C348.462 326.611 348.604 326.656 348.732 326.728L357.582 330.82C358.711 331.345 359.975 331.504 361.199 331.276C362.423 331.047 363.544 330.442 364.407 329.546L372.903 320.766C373.103 320.568 373.373 320.456 373.654 320.456C373.935 320.456 374.205 320.568 374.404 320.766C374.6 320.967 374.709 321.237 374.709 321.517C374.709 321.797 374.6 322.066 374.404 322.267L365.908 331.047C365.152 331.823 364.247 332.439 363.247 332.858C362.247 333.276 361.173 333.489 360.089 333.482Z" fill="black"/>
<path d="M350.177 325.68C350.177 326.498 349.934 327.297 349.48 327.977C349.026 328.657 348.38 329.187 347.624 329.5C346.869 329.813 346.037 329.895 345.235 329.735C344.433 329.576 343.697 329.182 343.118 328.604C342.54 328.025 342.146 327.289 341.987 326.487C341.827 325.684 341.909 324.853 342.222 324.098C342.535 323.342 343.065 322.696 343.745 322.242C344.425 321.788 345.224 321.545 346.042 321.545C347.139 321.545 348.19 321.981 348.966 322.756C349.741 323.532 350.177 324.583 350.177 325.68Z" fill="#0F3E6E"/>
<path opacity="0.5" d="M350.177 325.68C350.177 326.498 349.934 327.297 349.48 327.977C349.026 328.657 348.38 329.187 347.624 329.5C346.869 329.813 346.037 329.895 345.235 329.735C344.433 329.576 343.697 329.182 343.118 328.604C342.54 328.025 342.146 327.289 341.987 326.487C341.827 325.684 341.909 324.853 342.222 324.098C342.535 323.342 343.065 322.696 343.745 322.242C344.425 321.788 345.224 321.545 346.042 321.545C347.139 321.545 348.19 321.981 348.966 322.756C349.741 323.532 350.177 324.583 350.177 325.68Z" fill="black"/>
<path d="M392.473 277.678V288.014C392.491 288.866 392.195 289.695 391.641 290.343C391.088 290.99 390.315 291.412 389.471 291.526C389.004 291.576 388.533 291.527 388.086 291.382C387.64 291.237 387.229 291 386.881 290.687C386.532 290.373 386.253 289.989 386.063 289.56C385.872 289.132 385.774 288.668 385.775 288.198V277.678C385.783 272.656 384.775 267.685 382.812 263.064C380.849 258.442 377.971 254.266 374.352 250.785C370.732 247.305 366.446 244.593 361.752 242.812C357.057 241.031 352.05 240.218 347.033 240.423C352.131 239.425 357.316 238.951 362.51 239.007H363.742C368.871 239.06 373.843 240.785 377.902 243.92C384.387 248.919 392.473 258.972 392.473 277.678Z" fill="#0F3E6E"/>
<path opacity="0.5" d="M392.473 277.678V288.014C392.491 288.866 392.195 289.695 391.641 290.343C391.088 290.99 390.315 291.412 389.471 291.526C389.004 291.576 388.533 291.527 388.086 291.382C387.64 291.237 387.229 291 386.881 290.687C386.532 290.373 386.253 289.989 386.063 289.56C385.872 289.132 385.774 288.668 385.775 288.198V277.678C385.783 272.656 384.775 267.685 382.812 263.064C380.849 258.442 377.971 254.266 374.352 250.785C370.732 247.305 366.446 244.593 361.752 242.812C357.057 241.031 352.05 240.218 347.033 240.423C352.131 239.425 357.316 238.951 362.51 239.007H363.742C368.871 239.06 373.843 240.785 377.902 243.92C384.387 248.919 392.473 258.972 392.473 277.678Z" fill="black"/>
<path d="M376.557 472.477C376.557 472.477 369.704 491.352 394.2 499.848C394.2 499.848 402.201 488.095 394.2 478.481C386.2 468.866 376.557 472.477 376.557 472.477Z" fill="#0F3E6E"/>
<path opacity="0.7" d="M376.557 472.477C376.557 472.477 369.704 491.352 394.2 499.848C394.2 499.848 402.201 488.095 394.2 478.481C386.2 468.866 376.557 472.477 376.557 472.477Z" fill="black"/>
<path d="M385.152 473.34C385.152 473.34 361.222 482.105 361.349 485.504C361.476 488.902 371.516 486.58 371.516 486.58L367.848 488.987C363.986 491.507 360.995 495.156 359.282 499.437C358.908 500.381 358.895 501.43 359.245 502.383C359.595 503.336 360.283 504.127 361.179 504.606L370.27 509.42C370.783 509.692 371.346 509.859 371.925 509.91C372.504 509.961 373.087 509.896 373.64 509.717C374.193 509.539 374.705 509.252 375.145 508.872C375.585 508.493 375.945 508.029 376.203 507.508C376.71 506.507 377.41 505.616 378.263 504.887C379.116 504.158 380.105 503.605 381.173 503.26C386.115 501.618 395.333 496.888 399.029 483.946L385.152 473.34Z" fill="#945959"/>
<path d="M392.331 351.749C392.331 351.749 379.587 358.829 386.355 380.323C393.124 401.818 405.825 435.165 405.825 435.165L376.557 472.477C379.684 472.854 382.696 473.886 385.397 475.506C388.098 477.126 390.427 479.298 392.232 481.879C393.961 484.504 395.041 487.502 395.383 490.626C395.725 493.75 395.32 496.911 394.2 499.848L430.535 453.12C433.895 448.802 436.126 443.714 437.026 438.317C437.925 432.92 437.466 427.384 435.689 422.209L420.113 376.727C418.209 371.171 415.045 366.131 410.869 362.002C406.693 357.872 401.618 354.765 396.041 352.924L392.331 351.749Z" fill="#0F3E6E"/>
<path d="M177.213 224.776L120.898 192.208C120.25 191.759 119.5 191.478 118.717 191.391C117.933 191.305 117.14 191.415 116.41 191.712C116.256 191.783 116.109 191.869 115.971 191.967L103.722 199.146H103.807C102.264 200.024 101.287 202.063 101.287 204.98V267.624C101.287 272.92 104.501 279.079 108.48 281.373L164.794 313.941C165.509 314.458 166.359 314.754 167.24 314.791C168.121 314.829 168.994 314.607 169.75 314.154C169.712 314.169 169.678 314.193 169.651 314.224L181.815 307.144C183.4 306.295 184.406 304.227 184.406 301.268V238.525C184.406 233.229 181.248 227.07 177.213 224.776Z" fill="#0F3E6E"/>
<path d="M182.395 230.709C181.256 228.286 179.46 226.23 177.213 224.776L120.898 192.208C120.25 191.759 119.5 191.478 118.717 191.391C117.933 191.305 117.14 191.415 116.41 191.712C116.256 191.783 116.109 191.869 115.971 191.967L103.722 199.146C104.471 198.763 105.312 198.594 106.151 198.656C106.99 198.718 107.796 199.01 108.48 199.5L164.794 232.068C167.119 233.588 168.961 235.739 170.104 238.27L182.395 230.709Z" fill="#0F3E6E"/>
<path d="M171.987 308.433C171.987 311.265 171.081 313.233 169.651 314.097L181.814 307.017C183.4 306.167 184.406 304.1 184.406 301.141V238.525C184.346 235.8 183.658 233.125 182.395 230.709L170.104 238.27C171.284 240.615 171.927 243.193 171.987 245.817V308.433Z" fill="#0F3E6E"/>
<path opacity="0.3" d="M182.395 230.709C181.256 228.286 179.46 226.23 177.213 224.776L120.898 192.208C120.25 191.759 119.5 191.478 118.717 191.391C117.933 191.305 117.14 191.415 116.41 191.712C116.256 191.783 116.109 191.869 115.971 191.967L103.722 199.146C104.471 198.763 105.312 198.594 106.151 198.656C106.99 198.718 107.796 199.01 108.48 199.5L164.794 232.068C167.119 233.588 168.961 235.739 170.104 238.27L182.395 230.709Z" fill="black"/>
<path opacity="0.6" d="M171.987 308.433C171.987 311.265 171.081 313.233 169.651 314.097L181.814 307.017C183.4 306.167 184.406 304.1 184.406 301.141V238.525C184.346 235.8 183.658 233.125 182.395 230.709L170.104 238.27C171.284 240.615 171.927 243.193 171.987 245.817V308.433Z" fill="black"/>
<path d="M155.477 263.758C155.477 271.872 152.263 274.633 147.448 271.844C146.12 271.088 144.959 270.07 144.034 268.854C143.109 267.637 142.441 266.246 142.068 264.764C140.652 266.505 138.457 266.619 135.37 264.834C130.301 261.903 126.308 254.922 126.308 248.14C126.308 241.357 130.258 239.021 135.37 241.966C137.964 243.495 140.059 245.742 141.402 248.437V245.761L146.74 248.848V263.518C146.661 264.29 146.794 265.069 147.126 265.77C147.458 266.471 147.976 267.069 148.624 267.497C150.422 268.544 151.526 266.774 151.526 261.521C151.526 252.331 145.636 242.589 136.928 237.562C128.219 232.535 122.343 236.033 122.343 245.492C122.457 250.511 123.84 255.42 126.363 259.76C128.886 264.1 132.467 267.731 136.772 270.314C139.109 271.754 141.764 272.6 144.503 272.778L145.763 277.663C142.573 277.406 139.491 276.391 136.772 274.704C125.444 268.148 117.953 254.951 117.953 243C117.953 231.049 125.515 226.716 136.928 233.314C147.958 239.672 155.477 252.402 155.477 263.758ZM141.487 256.947C141.515 255.152 141.076 253.38 140.215 251.804C139.354 250.228 138.1 248.902 136.574 247.956C133.742 246.299 131.717 247.46 131.717 251.312C131.68 253.11 132.108 254.888 132.959 256.473C133.81 258.057 135.055 259.396 136.574 260.36C139.406 261.96 141.487 260.926 141.487 256.947Z" fill="#0F3E6E"/>
<g opacity="0.9">
<path d="M155.477 263.758C155.477 271.872 152.263 274.633 147.448 271.844C146.12 271.088 144.959 270.07 144.034 268.854C143.109 267.637 142.441 266.246 142.068 264.764C140.652 266.505 138.457 266.619 135.37 264.834C130.301 261.903 126.308 254.922 126.308 248.14C126.308 241.357 130.258 239.021 135.37 241.966C137.964 243.495 140.059 245.742 141.402 248.437V245.761L146.74 248.848V263.518C146.661 264.29 146.794 265.069 147.126 265.77C147.458 266.471 147.976 267.069 148.624 267.497C150.422 268.544 151.526 266.774 151.526 261.521C151.526 252.331 145.636 242.589 136.928 237.562C128.219 232.535 122.343 236.033 122.343 245.492C122.457 250.511 123.84 255.42 126.363 259.76C128.886 264.1 132.467 267.731 136.772 270.314C139.109 271.754 141.764 272.6 144.503 272.778L145.763 277.663C142.573 277.406 139.491 276.391 136.772 274.704C125.444 268.148 117.953 254.951 117.953 243C117.953 231.049 125.515 226.716 136.928 233.314C147.958 239.672 155.477 252.402 155.477 263.758ZM141.487 256.947C141.515 255.152 141.076 253.38 140.215 251.804C139.354 250.228 138.1 248.902 136.574 247.956C133.742 246.299 131.717 247.46 131.717 251.312C131.68 253.11 132.108 254.888 132.959 256.473C133.81 258.057 135.055 259.396 136.574 260.36C139.406 261.96 141.487 260.926 141.487 256.947Z" fill="white"/>
</g>
<path d="M177.213 336.328L120.898 303.76C120.251 303.309 119.5 303.028 118.716 302.943C117.931 302.859 117.138 302.975 116.41 303.279C116.256 303.35 116.109 303.435 115.971 303.534L103.722 310.713H103.807C102.264 311.591 101.287 313.63 101.287 316.533V379.148C101.287 384.458 104.501 390.604 108.48 392.897L164.794 425.465C165.507 425.986 166.358 426.283 167.24 426.321C168.122 426.359 168.995 426.135 169.75 425.678L169.651 425.763L181.815 418.612C183.4 417.777 184.406 415.78 184.406 412.736V350.063C184.406 344.768 181.248 338.622 177.213 336.328Z" fill="#0F3E6E"/>
<path d="M182.395 342.261C181.26 339.836 179.463 337.779 177.213 336.328L120.898 303.76C120.251 303.309 119.5 303.028 118.716 302.943C117.931 302.859 117.138 302.975 116.41 303.279C116.256 303.35 116.109 303.435 115.971 303.534L103.722 310.713C104.47 310.326 105.309 310.153 106.149 310.213C106.988 310.273 107.795 310.564 108.48 311.053L164.794 343.621C167.122 345.142 168.965 347.3 170.104 349.837L182.395 342.261Z" fill="#0F3E6E"/>
<path d="M171.987 419.971C171.987 422.803 171.081 424.772 169.651 425.706L181.814 418.555C183.4 417.72 184.406 415.723 184.406 412.679V350.063C184.346 347.342 183.657 344.672 182.395 342.261L170.104 349.823C171.284 352.163 171.927 354.736 171.987 357.356V419.971Z" fill="#0F3E6E"/>
<path opacity="0.3" d="M182.395 342.261C181.26 339.836 179.463 337.779 177.213 336.328L120.898 303.76C120.251 303.309 119.5 303.028 118.716 302.943C117.931 302.859 117.138 302.975 116.41 303.279C116.256 303.35 116.109 303.435 115.971 303.534L103.722 310.713C104.47 310.326 105.309 310.153 106.149 310.213C106.988 310.273 107.795 310.564 108.48 311.053L164.794 343.621C167.122 345.142 168.965 347.3 170.104 349.837L182.395 342.261Z" fill="black"/>
<path opacity="0.6" d="M171.987 419.971C171.987 422.803 171.081 424.772 169.651 425.706L181.814 418.555C183.4 417.72 184.406 415.723 184.406 412.679V350.063C184.346 347.342 183.657 344.672 182.395 342.261L170.104 349.823C171.284 352.163 171.927 354.736 171.987 357.356V419.971Z" fill="black"/>
<path d="M130.343 364.323L116.764 342.261V372.153L130.343 364.323Z" fill="#0F3E6E"/>
<path d="M142.959 370.68L156.511 394.143V364.294L142.959 370.68Z" fill="#0F3E6E"/>
<path d="M118.817 341.256L132.764 363.912C132.824 363.962 132.876 364.019 132.92 364.082C132.933 364.138 132.933 364.196 132.92 364.252L137.069 370.992L140.581 369.335C140.636 369.276 140.697 369.223 140.765 369.179C140.903 369.099 141.058 369.05 141.218 369.038L155.378 362.397L118.817 341.256Z" fill="#0F3E6E"/>
<path d="M140.906 371.643L137.112 373.427C136.965 373.496 136.806 373.529 136.644 373.527C136.449 373.529 136.256 373.48 136.085 373.386C135.914 373.292 135.77 373.155 135.667 372.988L131.518 366.248L117.896 374.121L154.557 395.276L140.906 371.643Z" fill="#0F3E6E"/>
<g opacity="0.9">
<path d="M130.343 364.323L116.764 342.261V372.153L130.343 364.323Z" fill="white"/>
<path d="M142.959 370.68L156.511 394.143V364.294L142.959 370.68Z" fill="white"/>
<path d="M118.817 341.256L132.764 363.912C132.824 363.962 132.876 364.019 132.92 364.082C132.933 364.138 132.933 364.196 132.92 364.252L137.069 370.992L140.581 369.335C140.636 369.276 140.697 369.223 140.765 369.179C140.903 369.099 141.058 369.05 141.218 369.038L155.378 362.397L118.817 341.256Z" fill="white"/>
<path d="M140.906 371.643L137.112 373.427C136.965 373.496 136.806 373.529 136.644 373.527C136.449 373.529 136.256 373.48 136.085 373.386C135.914 373.292 135.77 373.155 135.667 372.988L131.518 366.248L117.896 374.121L154.557 395.276L140.906 371.643Z" fill="white"/>
</g>
<path d="M177.213 113.28L120.898 80.7119C120.251 80.2602 119.5 79.9793 118.716 79.8951C117.931 79.811 117.138 79.9263 116.41 80.2305C116.256 80.3015 116.109 80.3869 115.971 80.4853L103.722 87.6645H103.807C102.264 88.5282 101.287 90.5814 101.287 93.4842V156.1C101.287 161.396 104.501 167.555 108.48 169.849L164.794 202.417C165.507 202.937 166.358 203.235 167.24 203.273C168.122 203.311 168.995 203.087 169.75 202.63L169.651 202.7L181.815 195.62C183.4 194.785 184.406 192.788 184.406 189.744V126.973C184.406 121.677 181.248 115.517 177.213 113.28Z" fill="#0F3E6E"/>
<path d="M182.395 119.17C181.26 116.741 179.464 114.68 177.213 113.223L120.898 80.7119C120.251 80.2602 119.5 79.9793 118.716 79.8951C117.931 79.811 117.138 79.9263 116.41 80.2305C116.256 80.3015 116.109 80.3869 115.971 80.4853L103.722 87.6645C104.47 87.2779 105.309 87.1051 106.149 87.165C106.988 87.225 107.795 87.5154 108.48 88.0043L164.794 120.572C167.122 122.094 168.965 124.251 170.104 126.789L182.395 119.17Z" fill="#0F3E6E"/>
<path d="M171.987 196.824C171.987 199.656 171.081 201.624 169.651 202.488L181.814 195.408C183.4 194.572 184.406 192.576 184.406 189.531V126.973C184.346 124.252 183.657 121.581 182.395 119.17L170.104 126.732C171.284 129.072 171.927 131.645 171.987 134.265V196.824Z" fill="#0F3E6E"/>
<path opacity="0.3" d="M182.395 119.17C181.26 116.741 179.464 114.68 177.213 113.223L120.898 80.7119C120.251 80.2602 119.5 79.9793 118.716 79.8951C117.931 79.811 117.138 79.9263 116.41 80.2305C116.256 80.3015 116.109 80.3869 115.971 80.4853L103.722 87.6645C104.47 87.2779 105.309 87.1051 106.149 87.165C106.988 87.225 107.795 87.5154 108.48 88.0043L164.794 120.572C167.122 122.094 168.965 124.251 170.104 126.789L182.395 119.17Z" fill="black"/>
<path opacity="0.6" d="M171.987 196.824C171.987 199.656 171.081 201.624 169.651 202.488L181.814 195.408C183.4 194.572 184.406 192.576 184.406 189.531V126.973C184.346 124.252 183.657 121.581 182.395 119.17L170.104 126.732C171.284 129.072 171.927 131.645 171.987 134.265V196.824Z" fill="black"/>
<path d="M153.566 169.92C151.399 166.352 149.218 162.84 147.052 159.243C146.708 158.562 146.228 157.959 145.641 157.472C145.054 156.984 144.372 156.623 143.639 156.411C142.592 156.199 141.544 155.958 140.468 155.647C140.084 155.487 139.762 155.209 139.547 154.854C136.002 148.786 133.184 142.323 131.15 135.596C131.107 135.452 131.095 135.301 131.114 135.152C131.134 135.003 131.185 134.86 131.264 134.732C131.929 134.067 132.68 133.458 133.359 132.863C134.039 132.268 134.393 130.895 133.897 129.111C132.849 125.33 131.844 121.549 130.796 117.783C130.593 116.713 130.112 115.715 129.402 114.889C128.691 114.064 127.775 113.441 126.746 113.082C124.463 112.447 122.039 112.536 119.808 113.337C118.944 113.662 118.491 114.441 118.477 115.786C118.845 118.378 119.086 120.94 119.582 123.574C123.074 142.568 131.476 160.032 144.786 175.966C145.134 176.495 145.601 176.934 146.149 177.249C146.698 177.564 147.312 177.745 147.944 177.779C150.148 177.726 152.265 176.911 153.934 175.471C155.194 174.338 155.066 172.327 153.566 169.92Z" fill="#0F3E6E"/>
<path d="M153.395 150.62C153.099 146.547 151.976 142.577 150.096 138.952C148.692 136.12 146.905 133.495 144.786 131.15C144.234 130.527 143.766 130.328 143.483 130.796C143.2 131.263 143.483 131.929 144.021 132.537L144.574 133.175C148.487 137.692 150.954 143.282 151.654 149.218C151.647 149.651 151.689 150.083 151.781 150.506C151.959 150.993 152.244 151.434 152.616 151.795C152.914 152.007 153.254 151.795 153.494 151.795C153.409 151.214 153.424 150.917 153.395 150.62Z" fill="#0F3E6E"/>
<path d="M140.567 138.995C142.345 140.95 143.425 143.44 143.639 146.075C143.733 146.475 143.88 146.861 144.078 147.222C144.942 147.93 145.367 147.689 145.367 146.797C145.064 143.419 143.667 140.232 141.388 137.72C140.85 137.168 140.411 136.998 140.156 137.465C140.064 137.732 140.054 138.02 140.128 138.293C140.201 138.565 140.354 138.81 140.567 138.995Z" fill="#0F3E6E"/>
<g opacity="0.9">
<path d="M153.566 169.92C151.399 166.352 149.218 162.84 147.052 159.243C146.708 158.562 146.228 157.959 145.641 157.472C145.054 156.984 144.372 156.623 143.639 156.411C142.592 156.199 141.544 155.958 140.468 155.647C140.084 155.487 139.762 155.209 139.547 154.854C136.002 148.786 133.184 142.323 131.15 135.596C131.107 135.452 131.095 135.301 131.114 135.152C131.134 135.003 131.185 134.86 131.264 134.732C131.929 134.067 132.68 133.458 133.359 132.863C134.039 132.268 134.393 130.895 133.897 129.111C132.849 125.33 131.844 121.549 130.796 117.783C130.593 116.713 130.112 115.715 129.402 114.889C128.691 114.064 127.775 113.441 126.746 113.082C124.463 112.447 122.039 112.536 119.808 113.337C118.944 113.662 118.491 114.441 118.477 115.786C118.845 118.378 119.086 120.94 119.582 123.574C123.074 142.568 131.476 160.032 144.786 175.966C145.134 176.495 145.601 176.934 146.149 177.249C146.698 177.564 147.312 177.745 147.944 177.779C150.148 177.726 152.265 176.911 153.934 175.471C155.194 174.338 155.066 172.327 153.566 169.92Z" fill="white"/>
<path d="M153.396 150.62C153.099 146.547 151.977 142.577 150.096 138.952C148.692 136.12 146.906 133.495 144.786 131.15C144.234 130.527 143.767 130.329 143.484 130.796C143.201 131.263 143.484 131.929 144.022 132.538L144.574 133.175C148.488 137.693 150.954 143.282 151.654 149.218C151.647 149.651 151.69 150.083 151.781 150.507C151.959 150.994 152.245 151.434 152.617 151.795C152.914 152.008 153.254 151.795 153.495 151.795C153.41 151.215 153.424 150.917 153.396 150.62Z" fill="white"/>
<path d="M140.567 138.995C142.345 140.95 143.425 143.44 143.639 146.075C143.733 146.475 143.88 146.861 144.078 147.222C144.942 147.93 145.367 147.689 145.367 146.797C145.064 143.419 143.667 140.232 141.388 137.72C140.85 137.168 140.411 136.998 140.156 137.465C140.064 137.732 140.054 138.02 140.128 138.293C140.201 138.565 140.354 138.81 140.567 138.995Z" fill="white"/>
</g>
<path d="M466.147 75.7276L479.415 83.2749V78.5738C479.415 78.2481 479.415 77.9083 479.415 77.5826C479.415 77.2569 479.415 76.9454 479.415 76.6338V76.4639C479.897 70.2477 484.612 67.8547 490.361 71.1823C492.964 72.7831 495.194 74.9218 496.903 77.4551C498.192 68.9591 505.087 65.9572 513.428 70.7575C522.688 76.1099 530.193 89.1654 530.193 99.8138V109.867C530.18 110.672 530.378 111.465 530.768 112.168C531.159 112.872 531.727 113.46 532.416 113.875L540.233 118.448C541.919 119.448 543.318 120.869 544.291 122.572C545.264 124.275 545.778 126.201 545.783 128.162C545.784 128.976 545.569 129.775 545.162 130.48C544.755 131.184 544.17 131.769 543.465 132.175C542.76 132.581 541.961 132.795 541.147 132.794C540.334 132.793 539.535 132.577 538.831 132.169L466.346 90.2699C464.423 89.1532 462.826 87.5527 461.713 85.6276C460.6 83.7024 460.01 81.5196 460.002 79.2959C460.001 78.5762 460.19 77.8688 460.549 77.2449C460.907 76.6209 461.424 76.1022 462.046 75.7408C462.669 75.3794 463.375 75.1879 464.095 75.1856C464.815 75.1833 465.523 75.3702 466.147 75.7276Z" fill="#E6E6E6"/>
<path d="M567.292 73.7593L576.935 79.2958V75.8408C576.935 75.6001 576.935 75.3594 576.935 75.1186C576.935 74.8779 576.935 74.6514 576.935 74.4248V74.3398C577.289 69.8228 580.716 68.0811 584.893 70.5025C586.785 71.6615 588.407 73.2112 589.651 75.0478C590.6 68.9024 595.612 66.6793 601.673 70.1768C608.413 74.0708 613.865 83.5297 613.865 91.3035V98.6242C613.87 99.1981 614.024 99.7608 614.312 100.257C614.6 100.754 615.012 101.167 615.507 101.456L621.171 104.784C622.404 105.509 623.425 106.544 624.133 107.786C624.841 109.028 625.211 110.434 625.207 111.864C625.206 112.449 625.052 113.025 624.761 113.533C624.471 114.041 624.052 114.465 623.548 114.762C623.043 115.059 622.47 115.22 621.884 115.228C621.299 115.237 620.721 115.092 620.208 114.809L567.434 84.3368C566.036 83.5278 564.874 82.3655 564.067 80.9663C563.259 79.5671 562.833 77.9803 562.832 76.3647C562.831 75.8418 562.967 75.3279 563.227 74.8741C563.487 74.4204 563.861 74.0428 564.313 73.779C564.764 73.5153 565.277 73.3747 565.8 73.3712C566.323 73.3677 566.837 73.5016 567.292 73.7593Z" fill="#E6E6E6"/>
</svg>
