<svg width="315" height="315" viewBox="0 0 315 315" fill="none" xmlns="http://www.w3.org/2000/svg">
<path d="M157.5 265.476C224.962 265.476 279.651 262.283 279.651 258.344C279.651 254.405 224.962 251.212 157.5 251.212C90.0379 251.212 35.3491 254.405 35.3491 258.344C35.3491 262.283 90.0379 265.476 157.5 265.476Z" fill="#F5F5F5"/>
<path d="M150.192 215.164H28.5455C27.592 215.162 26.678 214.783 26.0037 214.109C25.3294 213.434 24.9499 212.52 24.9482 211.567V40.5658C24.9582 39.6177 25.3414 38.7118 26.0147 38.0443C26.6881 37.3768 27.5974 37.0016 28.5455 37H150.192C151.145 37.0017 152.059 37.3814 152.732 38.0559C153.405 38.7303 153.783 39.6443 153.783 40.5973V211.567C153.783 212.52 153.405 213.434 152.732 214.108C152.059 214.783 151.145 215.162 150.192 215.164ZM28.5455 37.126C27.6338 37.1277 26.7598 37.4906 26.1151 38.1353C25.4704 38.7801 25.1074 39.654 25.1057 40.5658V211.567C25.1074 212.479 25.4704 213.352 26.1151 213.997C26.7598 214.642 27.6338 215.005 28.5455 215.007H150.192C151.103 215.005 151.977 214.642 152.62 213.997C153.264 213.352 153.626 212.478 153.626 211.567V40.5658C153.626 39.6546 153.264 38.7806 152.62 38.1357C151.977 37.4908 151.103 37.1277 150.192 37.126H28.5455Z" fill="#E6E6E6"/>
<path d="M286.461 215.164H164.808C163.855 215.162 162.942 214.783 162.269 214.108C161.595 213.434 161.217 212.52 161.217 211.567V40.5658C161.226 39.6183 161.607 38.7123 162.28 38.0447C162.952 37.377 163.861 37.0016 164.808 37H286.461C287.409 37.0016 288.317 37.377 288.99 38.0447C289.662 38.7123 290.044 39.6183 290.052 40.5658V211.567C290.052 212.52 289.674 213.434 289.001 214.108C288.328 214.783 287.414 215.162 286.461 215.164ZM164.808 37.126C163.897 37.1277 163.024 37.4908 162.38 38.1357C161.736 38.7806 161.375 39.6546 161.375 40.5658V211.567C161.375 212.478 161.736 213.352 162.38 213.997C163.024 214.642 163.897 215.005 164.808 215.007H286.461C287.374 215.005 288.248 214.642 288.894 213.998C289.54 213.353 289.904 212.479 289.907 211.567V40.5658C289.904 39.6534 289.54 38.7795 288.894 38.1349C288.248 37.4904 287.374 37.1277 286.461 37.126H164.808Z" fill="#E6E6E6"/>
<path d="M59.8505 247.092H33.8882V247.25H59.8505V247.092Z" fill="#E0E0E0"/>
<path d="M112.77 245.832H86.7324V245.99H112.77V245.832Z" fill="#E0E0E0"/>
<path d="M146.652 245.832H140.352V245.99H146.652V245.832Z" fill="#E0E0E0"/>
<path d="M83.6829 251.213H54.5454V251.37H83.6829V251.213Z" fill="#E0E0E0"/>
<path d="M184.464 247.01H170.856V247.168H184.464V247.01Z" fill="#E0E0E0"/>
<path d="M207.667 247.01H190.071V247.168H207.667V247.01Z" fill="#E0E0E0"/>
<path d="M292.528 249.675H253.191V249.833H292.528V249.675Z" fill="#E0E0E0"/>
<path d="M259.838 71.9651H229.843V92.9252H259.838V71.9651Z" fill="#E6E6E6"/>
<path d="M243.369 71.9651H229.843V92.9252H243.369V71.9651Z" fill="#F0F0F0"/>
<path opacity="0.4" d="M236.597 74.8064C237.48 74.8064 238.344 75.0684 239.078 75.5592C239.813 76.05 240.385 76.7476 240.723 77.5638C241.061 78.3799 241.15 79.2781 240.977 80.1445C240.805 81.011 240.38 81.8069 239.755 82.4315C239.13 83.0562 238.334 83.4816 237.468 83.654C236.602 83.8263 235.703 83.7379 234.887 83.3998C234.071 83.0617 233.373 82.4892 232.883 81.7547C232.392 81.0201 232.13 80.1565 232.13 79.2731C232.13 78.0885 232.6 76.9523 233.438 76.1147C234.276 75.277 235.412 74.8064 236.597 74.8064Z" fill="#E0E0E0"/>
<path d="M238.77 87.986C238.77 88.4171 238.642 88.8385 238.403 89.197C238.163 89.5555 237.823 89.8349 237.425 89.9998C237.026 90.1648 236.588 90.208 236.165 90.1239C235.742 90.0398 235.354 89.8322 235.049 89.5273C234.744 89.2225 234.537 88.8341 234.453 88.4112C234.368 87.9884 234.412 87.5501 234.577 87.1518C234.742 86.7535 235.021 86.413 235.379 86.1735C235.738 85.934 236.159 85.8062 236.59 85.8062C236.877 85.8053 237.161 85.8611 237.426 85.9704C237.69 86.0797 237.931 86.2402 238.134 86.4428C238.336 86.6453 238.497 86.886 238.606 87.1508C238.715 87.4156 238.771 87.6995 238.77 87.986Z" fill="#E0E0E0"/>
<path d="M236.565 80.8479C237.268 80.8479 237.838 80.2782 237.838 79.5753C237.838 78.8725 237.268 78.3027 236.565 78.3027C235.862 78.3027 235.292 78.8725 235.292 79.5753C235.292 80.2782 235.862 80.8479 236.565 80.8479Z" fill="#FAFAFA"/>
<path d="M195.804 64.4553H182.833V92.9313H195.804V64.4553Z" fill="#F0F0F0"/>
<path d="M212.657 64.4553H195.445V92.9313H212.657V64.4553Z" fill="#E6E6E6"/>
<path d="M189.271 73.4959C189.628 73.4946 189.977 73.5994 190.274 73.7969C190.572 73.9944 190.804 74.2757 190.941 74.6052C191.078 74.9347 191.114 75.2975 191.045 75.6476C190.976 75.9977 190.804 76.3193 190.551 76.5717C190.299 76.8241 189.977 76.9958 189.627 77.0651C189.277 77.1345 188.914 77.0982 188.585 76.9611C188.255 76.8239 187.974 76.592 187.777 76.2947C187.579 75.9975 187.474 75.6483 187.476 75.2914C187.477 74.8157 187.667 74.3599 188.003 74.0236C188.34 73.6872 188.795 73.4975 189.271 73.4959Z" fill="white"/>
<path d="M189.271 70.6924C189.449 70.6924 189.623 70.7452 189.772 70.8442C189.92 70.9432 190.035 71.0839 190.103 71.2485C190.172 71.4131 190.189 71.5943 190.155 71.769C190.12 71.9438 190.034 72.1043 189.908 72.2303C189.782 72.3563 189.622 72.4421 189.447 72.4769C189.272 72.5116 189.091 72.4938 188.926 72.4256C188.762 72.3574 188.621 72.2419 188.522 72.0938C188.423 71.9456 188.37 71.7715 188.37 71.5933C188.37 71.475 188.393 71.3578 188.439 71.2485C188.484 71.1392 188.55 71.0399 188.634 70.9563C188.718 70.8726 188.817 70.8062 188.926 70.761C189.036 70.7157 189.153 70.6924 189.271 70.6924Z" fill="white"/>
<path d="M189.271 67.9707C189.449 67.9707 189.623 68.0235 189.772 68.1225C189.92 68.2215 190.035 68.3622 190.103 68.5268C190.172 68.6915 190.189 68.8726 190.155 69.0474C190.12 69.2221 190.034 69.3826 189.908 69.5086C189.782 69.6346 189.622 69.7204 189.447 69.7552C189.272 69.79 189.091 69.7721 188.926 69.7039C188.762 69.6357 188.621 69.5203 188.522 69.3721C188.423 69.224 188.37 69.0498 188.37 68.8716C188.37 68.7533 188.393 68.6361 188.439 68.5268C188.484 68.4175 188.55 68.3182 188.634 68.2346C188.718 68.1509 188.817 68.0846 188.926 68.0393C189.036 67.994 189.153 67.9707 189.271 67.9707Z" fill="white"/>
<path d="M212.355 80.4258H183.123V80.8731H212.355V80.4258Z" fill="#E0E0E0"/>
<path d="M212.355 82.9521H183.123V83.3995H212.355V82.9521Z" fill="#E0E0E0"/>
<path d="M212.355 85.4785H183.123V85.9258H212.355V85.4785Z" fill="#E0E0E0"/>
<path d="M212.355 88.0049H183.123V88.4522H212.355V88.0049Z" fill="#E0E0E0"/>
<path d="M212.355 90.531H183.123V90.9783H212.355V90.531Z" fill="#E0E0E0"/>
<path d="M189.58 81.1946H188.345V82.4294H189.58V81.1946Z" fill="#E0E0E0"/>
<path d="M189.58 83.853H188.345V85.0878H189.58V83.853Z" fill="#E0E0E0"/>
<path d="M189.58 86.2471H188.345V87.4819H189.58V86.2471Z" fill="#E0E0E0"/>
<path d="M189.58 88.8301H188.345V90.0649H189.58V88.8301Z" fill="#E0E0E0"/>
<path d="M189.58 91.3374H188.345V92.5722H189.58V91.3374Z" fill="#E0E0E0"/>
<path d="M158.048 120.96H157.418V96.8373C157.42 95.5346 157.938 94.2857 158.86 93.3645C159.781 92.4433 161.03 91.925 162.332 91.9233H183.122V92.5533H162.332C161.197 92.555 160.108 93.0069 159.305 93.8099C158.502 94.613 158.05 95.7017 158.048 96.8373V120.96Z" fill="#E0E0E0"/>
<path d="M156.788 121.004H156.158V96.661C156.16 95.0808 156.788 93.5659 157.906 92.4486C159.023 91.3313 160.538 90.7028 162.118 90.7012H183.122V91.3312H162.118C160.705 91.3328 159.35 91.8949 158.351 92.8941C157.352 93.8932 156.79 95.2479 156.788 96.661V121.004Z" fill="#E0E0E0"/>
<path d="M87.8034 60.48H68.0781V81.4779H87.8034V60.48Z" fill="#E6E6E6"/>
<path d="M92.8558 60.48H87.8032V81.4779H92.8558V60.48Z" fill="#F5F5F5"/>
<path d="M77.7234 57.2419H62.9058V81.478H77.7234V57.2419Z" fill="#E6E6E6"/>
<path d="M82.0008 57.2419H77.7168V81.478H82.0008V57.2419Z" fill="#F5F5F5"/>
<path d="M73.3576 60.48H60.8647V81.4779H73.3576V60.48Z" fill="#EBEBEB"/>
<path d="M76.2113 60.48H73.3574V81.4779H76.2113V60.48Z" fill="#F5F5F5"/>
<path d="M63.1324 64.0332H46.7461V81.4779H63.1324V64.0332Z" fill="#E6E6E6"/>
<path d="M67.3281 64.0332H63.1323V81.4779H67.3281V64.0332Z" fill="#F5F5F5"/>
<path d="M54.7599 61.3433H42.4497V81.4781H54.7599V61.3433Z" fill="#E6E6E6"/>
<path d="M58.3129 61.3433H54.7534V81.4781H58.3129V61.3433Z" fill="#F5F5F5"/>
<path d="M51.1312 64.0332H39.1738V81.4779H51.1312V64.0332Z" fill="#E6E6E6"/>
<path d="M53.506 64.0332H51.1372V81.4779H53.506V64.0332Z" fill="#F0F0F0"/>
<path d="M25.2002 87.5449L153.72 87.5449V81.4654L25.2002 81.4654V87.5449Z" fill="#E6E6E6"/>
<path d="M48.2646 87.6897H55.371L50.1924 95.508H48.2646V87.6897Z" fill="#E0E0E0"/>
<path d="M48.2647 87.6897H47.2378V95.508H48.2647V87.6897Z" fill="#E0E0E0"/>
<path d="M128.085 87.6897H135.198L130.02 95.508H128.085V87.6897Z" fill="#E0E0E0"/>
<path d="M128.092 87.6897H127.065V95.508H128.092V87.6897Z" fill="#E0E0E0"/>
<path d="M289.945 92.9314H161.425V99.0109H289.945V92.9314Z" fill="#E6E6E6"/>
<path d="M266.887 106.968H264.953L259.774 99.1494H266.887V106.968Z" fill="#E0E0E0"/>
<path d="M267.914 99.1494H266.887V106.968H267.914V99.1494Z" fill="#E0E0E0"/>
<path d="M187.06 106.968H185.126L179.947 99.1494H187.06V106.968Z" fill="#E0E0E0"/>
<path d="M188.087 99.1494H187.06V106.968H188.087V99.1494Z" fill="#E0E0E0"/>
<path d="M124.394 69.2308C124.394 68.3278 124.261 67.4296 123.997 66.5659L126.334 64.5121L124.866 61.9606L121.918 62.9623C120.676 61.6353 119.069 60.7058 117.3 60.2911L116.67 57.2419H113.728L113.098 60.2911C111.33 60.7059 109.725 61.6355 108.486 62.9623L105.531 61.9606L104.063 64.5121L106.401 66.5659C105.872 68.3032 105.872 70.1585 106.401 71.8957L104.063 73.9495L105.531 76.501L108.486 75.4993C109.725 76.8262 111.33 77.7558 113.098 78.1705L113.728 81.2197H116.67L117.3 78.1705C119.069 77.7559 120.676 76.8264 121.918 75.4993L124.866 76.501L126.334 73.9495L123.997 71.8957C124.261 71.0321 124.394 70.1339 124.394 69.2308ZM115.221 74.1826C114.278 74.1826 113.355 73.9029 112.571 73.3789C111.787 72.8549 111.176 72.11 110.815 71.2386C110.454 70.3672 110.359 69.4083 110.543 68.4831C110.727 67.558 111.182 66.7083 111.849 66.0413C112.515 65.3743 113.365 64.9201 114.29 64.7361C115.215 64.5521 116.174 64.6465 117.046 65.0075C117.917 65.3684 118.662 65.9797 119.186 66.764C119.71 67.5482 119.99 68.4703 119.99 69.4135C119.99 70.6784 119.487 71.8914 118.593 72.7858C117.699 73.6802 116.486 74.1826 115.221 74.1826Z" fill="#F0F0F0"/>
<path d="M140.308 70.7743C140.001 70.2655 139.619 69.8066 139.174 69.4135L139.804 67.4542L138.103 66.5281L136.786 68.1031C135.636 67.7828 134.416 67.8135 133.283 68.1913L131.891 66.6919L130.234 67.6999L130.94 69.6214C130.09 70.4635 129.507 71.5372 129.264 72.7084L127.267 73.162L127.317 75.0961L129.339 75.4489C129.641 76.6044 130.276 77.6454 131.166 78.4414L130.536 80.4007L132.237 81.3268L133.554 79.7518C134.707 80.0658 135.927 80.0351 137.063 79.6636L138.455 81.163L140.106 80.155L139.4 78.2272C140.25 77.3874 140.833 76.3158 141.076 75.1465L143.073 74.6929L143.023 72.7525L141.007 72.406C140.859 71.8295 140.623 71.2791 140.308 70.7743ZM136.862 76.7089C136.33 77.0356 135.714 77.1974 135.091 77.1737C134.468 77.15 133.866 76.9418 133.361 76.5756C132.856 76.2094 132.472 75.7016 132.256 75.1166C132.04 74.5316 132.002 73.8956 132.148 73.2893C132.294 72.683 132.617 72.1336 133.075 71.7108C133.533 71.2879 134.107 71.0106 134.723 70.914C135.339 70.8174 135.97 70.9058 136.536 71.168C137.101 71.4303 137.577 71.8545 137.901 72.3871C138.334 73.0985 138.468 73.9526 138.274 74.7626C138.079 75.5726 137.571 76.2724 136.862 76.7089Z" fill="#F0F0F0"/>
<path d="M286.134 172.066H29.333V175.298H286.134V172.066Z" fill="#407BFF"/>
<path d="M44.6294 174.384V251.458H46.6328L49.1528 174.384H44.6294Z" fill="#407BFF"/>
<path d="M68.2798 176.904V248.308H70.2832L72.8032 176.904H68.2798Z" fill="#407BFF"/>
<path opacity="0.5" d="M68.2798 176.904V248.308H70.2832L72.8032 176.904H68.2798Z" fill="black"/>
<path d="M271.751 174.384V251.458H269.754L267.228 174.384H271.751Z" fill="#407BFF"/>
<path d="M248.101 176.904V248.308H246.097L243.577 176.904H248.101Z" fill="#407BFF"/>
<path opacity="0.5" d="M248.101 176.904V248.308H246.097L243.577 176.904H248.101Z" fill="black"/>
<path d="M276.318 178.756H39.9043L34.6753 175.298H281.547L276.318 178.756Z" fill="#407BFF"/>
<path opacity="0.5" d="M276.318 178.756H39.9043L34.6753 175.298H281.547L276.318 178.756Z" fill="black"/>
<path d="M46.2104 162.156V164.676C46.2104 165.094 46.3757 165.494 46.6704 165.791L48.6675 167.788C48.8443 167.964 49.0602 168.095 49.2975 168.172C49.7092 169.058 50.3656 169.808 51.1893 170.334C52.013 170.86 52.9697 171.139 53.9468 171.139H54.6966C55.3745 171.144 56.0465 171.013 56.6736 170.756C57.3007 170.498 57.8705 170.119 58.3499 169.639C58.8293 169.16 59.2087 168.59 59.4662 167.963C59.7237 167.336 59.8541 166.664 59.8499 165.986V160.108H48.8375V160.587H47.7854C47.3688 160.587 46.9692 160.752 46.674 161.046C46.3788 161.34 46.2121 161.739 46.2104 162.156ZM47.4704 162.156C47.4704 162.115 47.4786 162.074 47.4945 162.036C47.5104 161.998 47.5337 161.964 47.5631 161.935C47.5924 161.906 47.6272 161.884 47.6654 161.869C47.7036 161.853 47.7444 161.846 47.7854 161.847H48.8375V165.986C48.8375 166.043 48.8375 166.099 48.8375 166.156L47.5775 164.896C47.5473 164.868 47.5232 164.834 47.507 164.796C47.4907 164.758 47.4825 164.717 47.4831 164.676L47.4704 162.156Z" fill="#407BFF"/>
<path opacity="0.5" d="M46.2104 162.156V164.676C46.2104 165.094 46.3757 165.494 46.6704 165.791L48.6675 167.788C48.8443 167.964 49.0602 168.095 49.2975 168.172C49.7092 169.058 50.3656 169.808 51.1893 170.334C52.013 170.86 52.9697 171.139 53.9468 171.139H54.6966C55.3745 171.144 56.0465 171.013 56.6736 170.756C57.3007 170.498 57.8705 170.119 58.3499 169.639C58.8293 169.16 59.2087 168.59 59.4662 167.963C59.7237 167.336 59.8541 166.664 59.8499 165.986V160.108H48.8375V160.587H47.7854C47.3688 160.587 46.9692 160.752 46.674 161.046C46.3788 161.34 46.2121 161.739 46.2104 162.156ZM47.4704 162.156C47.4704 162.115 47.4786 162.074 47.4945 162.036C47.5104 161.998 47.5337 161.964 47.5631 161.935C47.5924 161.906 47.6272 161.884 47.6654 161.869C47.7036 161.853 47.7444 161.846 47.7854 161.847H48.8375V165.986C48.8375 166.043 48.8375 166.099 48.8375 166.156L47.5775 164.896C47.5473 164.868 47.5232 164.834 47.507 164.796C47.4907 164.758 47.4825 164.717 47.4831 164.676L47.4704 162.156Z" fill="white"/>
<path d="M62.4582 171.99H46.62C45.8958 171.926 45.2218 171.593 44.73 171.058H64.323C63.8386 171.589 63.1739 171.921 62.4582 171.99Z" fill="#407BFF"/>
<path opacity="0.5" d="M62.4582 171.99H46.62C45.8958 171.926 45.2218 171.593 44.73 171.058H64.323C63.8386 171.589 63.1739 171.921 62.4582 171.99Z" fill="white"/>
<path d="M275.537 164.279C275.455 161.759 273.552 161.167 271.07 160.883V159.97C271.067 159.864 271.022 159.764 270.945 159.69C270.869 159.617 270.766 159.577 270.66 159.579H262.08C262.027 159.577 261.974 159.586 261.925 159.605C261.875 159.624 261.83 159.652 261.791 159.688C261.752 159.724 261.721 159.768 261.7 159.816C261.678 159.865 261.666 159.917 261.664 159.97V171.883H271.076V170.579C273.558 170.302 275.461 166.786 275.537 164.279ZM271.07 169.042V162.427C272.897 162.691 274.157 162.943 273.886 164.77C273.672 166.232 272.525 168.84 271.07 169.042Z" fill="#407BFF"/>
<g opacity="0.5">
<path d="M275.537 164.279C275.455 161.759 273.552 161.167 271.07 160.883V159.97C271.067 159.864 271.022 159.764 270.945 159.69C270.869 159.617 270.766 159.577 270.66 159.579H262.08C262.027 159.577 261.974 159.586 261.925 159.605C261.875 159.624 261.83 159.652 261.791 159.688C261.752 159.724 261.721 159.768 261.7 159.816C261.678 159.865 261.666 159.917 261.664 159.97V171.883H271.076V170.579C273.558 170.302 275.461 166.786 275.537 164.279ZM271.07 169.042V162.427C272.897 162.691 274.157 162.943 273.886 164.77C273.672 166.232 272.525 168.84 271.07 169.042Z" fill="white"/>
</g>
<path d="M161.211 156.7H153.783V171.788H161.211V156.7Z" fill="#407BFF"/>
<path opacity="0.5" d="M161.211 156.7H153.783V171.788H161.211V156.7Z" fill="white"/>
<path d="M164.569 172.059H150.495L153.928 169.042H161.135L164.569 172.059Z" fill="#407BFF"/>
<path opacity="0.5" d="M164.569 172.059H150.495L153.928 169.042H161.135L164.569 172.059Z" fill="white"/>
<path d="M195.508 167.177H160.329L166.686 172.078H201.859L195.508 167.177Z" fill="#407BFF"/>
<path opacity="0.4" d="M195.508 167.177H160.329L166.686 172.078H201.859L195.508 167.177Z" fill="white"/>
<path d="M161.142 172.078L160.329 167.177L166.686 172.078H161.142Z" fill="#407BFF"/>
<path opacity="0.5" d="M161.142 172.078L160.329 167.177L166.686 172.078H161.142Z" fill="black"/>
<path d="M189.334 120.985H125.307C124.636 120.985 124.091 121.529 124.091 122.201V161.463C124.091 162.134 124.636 162.679 125.307 162.679H189.334C190.006 162.679 190.55 162.134 190.55 161.463V122.201C190.55 121.529 190.006 120.985 189.334 120.985Z" fill="#407BFF"/>
<path opacity="0.5" d="M188.068 123.593H126.504V159.925H188.068V123.593Z" fill="black"/>
<path opacity="0.4" d="M186.108 131.065H155.043V152.454H186.108V131.065Z" fill="black"/>
<path d="M186.108 131.065H155.043V133.024H186.108V131.065Z" fill="#407BFF"/>
<path d="M160.738 142.897L165.816 145.706C166.01 145.8 166.183 145.93 166.326 146.091C166.413 146.216 166.457 146.366 166.452 146.519C166.453 146.626 166.432 146.731 166.39 146.83C166.349 146.928 166.289 147.018 166.213 147.092C166.143 147.167 166.058 147.227 165.963 147.269C165.869 147.31 165.768 147.331 165.665 147.332C165.439 147.306 165.223 147.226 165.035 147.099L158.483 143.457C158.378 143.405 158.29 143.325 158.228 143.225C158.166 143.125 158.134 143.011 158.134 142.893C158.134 142.776 158.166 142.661 158.228 142.562C158.29 142.462 158.378 142.382 158.483 142.33L165.035 138.688C165.224 138.566 165.44 138.49 165.665 138.468C165.768 138.466 165.871 138.486 165.966 138.526C166.062 138.566 166.148 138.626 166.219 138.701C166.296 138.774 166.356 138.862 166.398 138.959C166.439 139.057 166.46 139.162 166.459 139.268C166.464 139.42 166.42 139.571 166.333 139.696C166.189 139.856 166.016 139.987 165.822 140.08L160.738 142.897Z" fill="white"/>
<path d="M173.805 137.649L168.765 148.478C168.684 148.675 168.566 148.855 168.418 149.008C168.282 149.114 168.112 149.17 167.939 149.165C167.836 149.167 167.734 149.147 167.639 149.108C167.544 149.069 167.457 149.012 167.385 148.938C167.311 148.873 167.251 148.792 167.21 148.702C167.169 148.612 167.147 148.514 167.146 148.415C167.164 148.194 167.228 147.98 167.335 147.785L172.375 136.962C172.453 136.769 172.566 136.592 172.708 136.439C172.847 136.331 173.018 136.273 173.194 136.275C173.295 136.274 173.397 136.293 173.491 136.332C173.585 136.371 173.67 136.429 173.742 136.502C173.813 136.568 173.87 136.648 173.909 136.737C173.948 136.826 173.968 136.922 173.968 137.019C173.959 137.238 173.903 137.453 173.805 137.649Z" fill="white"/>
<path d="M180.124 142.896L175.046 140.08C174.854 139.984 174.682 139.853 174.536 139.696C174.448 139.571 174.404 139.42 174.41 139.268C174.409 139.162 174.429 139.057 174.471 138.959C174.512 138.862 174.573 138.774 174.649 138.701C174.722 138.626 174.809 138.566 174.905 138.526C175.002 138.486 175.105 138.466 175.21 138.468C175.434 138.492 175.65 138.567 175.84 138.688L182.392 142.329C182.497 142.382 182.585 142.462 182.646 142.562C182.708 142.661 182.741 142.776 182.741 142.893C182.741 143.01 182.708 143.125 182.646 143.225C182.585 143.324 182.497 143.405 182.392 143.457L175.84 147.099C175.651 147.225 175.435 147.305 175.21 147.332C175.103 147.333 174.998 147.312 174.9 147.269C174.802 147.227 174.715 147.165 174.643 147.086C174.568 147.012 174.509 146.923 174.469 146.826C174.429 146.729 174.409 146.624 174.41 146.519C174.405 146.366 174.449 146.216 174.536 146.091C174.682 145.933 174.854 145.803 175.046 145.706L180.124 142.896Z" fill="white"/>
<path d="M131.134 126.945H129.03V129.049H131.134V126.945Z" fill="white"/>
<path d="M131.134 132.394H129.03V134.498H131.134V132.394Z" fill="white"/>
<path d="M131.134 137.838H129.03V139.942H131.134V137.838Z" fill="white"/>
<path d="M131.134 143.281H129.03V145.385H131.134V143.281Z" fill="white"/>
<path d="M131.134 148.724H129.03V150.828H131.134V148.724Z" fill="white"/>
<path d="M131.134 154.167H129.03V156.271H131.134V154.167Z" fill="white"/>
<path d="M141.517 127.424H133.132V128.054H141.517V127.424Z" fill="white"/>
<path d="M138.071 132.879H135.085V133.509H138.071V132.879Z" fill="white"/>
<path d="M151.068 139.003H148.082V139.633H151.068V139.003Z" fill="white"/>
<path d="M138.071 143.86H135.085V144.49H138.071V143.86Z" fill="white"/>
<path d="M142.374 143.86H139.388V144.49H142.374V143.86Z" fill="white"/>
<path d="M147.017 139.003H139.388V139.633H147.017V139.003Z" fill="white"/>
<path d="M148.857 143.86H143.835V144.49H148.857V143.86Z" fill="white"/>
<path d="M146.803 155.534H143.816V156.164H146.803V155.534Z" fill="white"/>
<path d="M151.112 155.534H148.126V156.164H151.112V155.534Z" fill="white"/>
<path d="M154.237 155.534H152.567V156.164H154.237V155.534Z" fill="white"/>
<path d="M148.856 132.879H139.564V133.509H148.856V132.879Z" fill="white"/>
<path d="M142.374 149.549H139.388V150.179H142.374V149.549Z" fill="white"/>
<path d="M145.102 149.549H143.375V150.179H145.102V149.549Z" fill="white"/>
<path d="M151.295 149.549H146.418V150.179H151.295V149.549Z" fill="white"/>
<path d="M152.107 103.635C151.95 111.258 144.031 117.653 134.411 117.905C131.456 118.004 128.516 117.46 125.792 116.311C124.822 118.705 122.781 120.759 116.928 121.678C123.033 116.96 119.694 112.965 118.302 109.456C117.581 107.924 117.221 106.248 117.25 104.555C117.407 96.9256 125.326 90.5437 134.946 90.2854C144.566 90.0271 152.259 96.0121 152.107 103.635Z" fill="#407BFF"/>
<path d="M134.883 95.6531H126.498V96.2831H134.883V95.6531Z" fill="white"/>
<path d="M131.437 101.115H128.451V101.745H131.437V101.115Z" fill="white"/>
<path d="M144.434 107.239H141.448V107.869H144.434V107.239Z" fill="white"/>
<path d="M131.437 112.096H128.451V112.726H131.437V112.096Z" fill="white"/>
<path d="M135.746 112.096H132.76V112.726H135.746V112.096Z" fill="white"/>
<path d="M140.39 107.239H132.76V107.869H140.39V107.239Z" fill="white"/>
<path d="M142.223 112.096H137.202V112.726H142.223V112.096Z" fill="white"/>
<path d="M142.229 101.115H132.937V101.745H142.229V101.115Z" fill="white"/>
<path d="M188.477 248.063L183.884 246.689L184.955 235.431L189.548 236.805L188.477 248.063Z" fill="#7F3E3B"/>
<path opacity="0.2" d="M189.926 234.259L185.333 232.892L184.735 239.198L189.378 240.061L189.926 234.259Z" fill="black"/>
<path d="M215.661 178.53C215.661 178.53 184.08 181.194 184.854 194.91C185.484 206.136 187.154 203.1 183.884 236.49L191.829 236.931C191.829 236.931 199.911 209.626 198.822 198.778C207.723 198.778 228.104 199.559 231.065 191.526C232.534 187.447 233.249 183.135 233.175 178.8L215.661 178.53Z" fill="#407BFF"/>
<path d="M193.088 238.443L182.706 236.666L182.876 232.073L193.624 234.461L193.088 238.443Z" fill="#263238"/>
<path d="M183.412 244.799L188.716 245.851C188.813 245.874 188.897 245.932 188.953 246.013C189.009 246.095 189.032 246.194 189.019 246.292L188.578 251.332C188.57 251.451 188.538 251.567 188.485 251.673C188.432 251.78 188.358 251.875 188.267 251.952C188.177 252.029 188.072 252.088 187.959 252.124C187.845 252.161 187.726 252.174 187.607 252.164C185.768 251.761 184.898 251.465 182.567 250.998C181.131 250.715 177.849 250.028 175.852 249.801C173.855 249.575 174.094 247.244 174.957 247.124C178.838 246.614 181.043 245.984 182.549 245.013C182.797 244.832 183.107 244.755 183.412 244.799Z" fill="#263238"/>
<path d="M181.03 245.7C181.448 245.757 181.87 245.769 182.29 245.738C182.312 245.739 182.332 245.732 182.35 245.72C182.367 245.707 182.379 245.689 182.385 245.669C182.394 245.65 182.399 245.629 182.399 245.609C182.399 245.588 182.394 245.567 182.385 245.549C182.253 245.417 181.062 244.289 180.451 244.415C180.38 244.426 180.314 244.457 180.259 244.504C180.205 244.55 180.164 244.611 180.142 244.679C180.092 244.779 180.07 244.889 180.076 245C180.083 245.11 180.119 245.217 180.18 245.309C180.403 245.544 180.707 245.684 181.03 245.7ZM182.045 245.53C181.169 245.53 180.551 245.429 180.369 245.171C180.331 245.11 180.312 245.04 180.312 244.969C180.312 244.898 180.331 244.828 180.369 244.768C180.379 244.734 180.397 244.703 180.423 244.679C180.448 244.655 180.48 244.637 180.514 244.629C180.81 244.566 181.553 245.07 182.07 245.536L182.045 245.53Z" fill="#407BFF"/>
<path d="M182.297 245.744H182.347C182.365 245.737 182.381 245.726 182.394 245.712C182.407 245.698 182.417 245.681 182.423 245.662C182.423 245.606 182.769 244.264 182.366 243.728C182.317 243.656 182.251 243.598 182.174 243.557C182.097 243.516 182.012 243.495 181.925 243.495C181.83 243.481 181.734 243.5 181.652 243.548C181.57 243.596 181.506 243.671 181.471 243.76C181.276 244.257 181.818 245.36 182.24 245.719C182.247 245.727 182.255 245.734 182.265 245.738C182.275 245.743 182.286 245.745 182.297 245.744ZM181.969 243.722C182.057 243.74 182.135 243.789 182.189 243.86C182.371 244.358 182.391 244.901 182.246 245.41C181.862 244.98 181.659 244.418 181.679 243.842C181.679 243.779 181.748 243.709 181.912 243.716L181.969 243.722Z" fill="#407BFF"/>
<path d="M168.002 249.814L163.63 247.848L166.654 237.063L171.026 239.028L168.002 249.814Z" fill="#7F3E3B"/>
<path opacity="0.2" d="M171.763 236.25L167.391 234.284L165.835 239.847L170.207 241.813L171.763 236.25Z" fill="black"/>
<path d="M206.262 178.53C206.054 178.53 170.856 182.152 170.812 194.091C170.736 213.835 165.098 236.464 165.098 236.464L172.028 239.91C172.028 239.91 184.143 215.378 183.96 199.987C193.643 197.209 218.692 201.877 221.653 193.851C224.078 187.287 222.768 178.53 222.768 178.53H206.262Z" fill="#407BFF"/>
<path d="M173.161 240.912L163.837 236.716L164.587 232.898L174.421 236.294L173.161 240.912Z" fill="#263238"/>
<path d="M164.064 244.226L169.382 245.328C169.481 245.361 169.566 245.429 169.62 245.519C169.675 245.609 169.695 245.716 169.678 245.82L169.262 251.332C169.186 251.931 168.758 252.34 168.298 252.246C166.458 251.824 165.589 251.496 163.258 250.986C161.822 250.696 157.909 249.726 155.937 249.228C153.966 248.73 154.407 246.204 155.307 246.185C159.207 246.128 161.733 245.492 163.233 244.402C163.352 244.317 163.487 244.257 163.63 244.227C163.773 244.197 163.921 244.196 164.064 244.226Z" fill="#263238"/>
<path d="M161.91 245.417C162.28 245.213 162.628 244.972 162.949 244.698C162.966 244.683 162.978 244.665 162.984 244.644C162.991 244.623 162.992 244.6 162.987 244.579C162.981 244.558 162.969 244.54 162.952 244.526C162.935 244.513 162.914 244.505 162.893 244.503C162.71 244.503 161.085 244.264 160.662 244.736C160.616 244.79 160.584 244.854 160.568 244.923C160.553 244.993 160.555 245.065 160.574 245.133C160.593 245.242 160.64 245.345 160.711 245.43C160.782 245.515 160.874 245.58 160.977 245.618C161.303 245.67 161.635 245.598 161.91 245.417ZM162.622 244.679C161.935 245.215 161.362 245.473 161.066 245.385C160.999 245.355 160.942 245.309 160.899 245.25C160.856 245.192 160.829 245.123 160.82 245.051C160.81 245.019 160.808 244.984 160.816 244.951C160.824 244.917 160.84 244.887 160.864 244.862C161.053 244.635 161.91 244.616 162.59 244.679H162.622Z" fill="#407BFF"/>
<path d="M162.918 244.698L162.962 244.667C162.973 244.651 162.979 244.632 162.979 244.613C162.979 244.594 162.973 244.576 162.962 244.56C162.93 244.516 162.408 243.224 161.771 243.029C161.689 243.003 161.602 242.996 161.517 243.009C161.432 243.022 161.35 243.055 161.28 243.104C161.195 243.15 161.129 243.222 161.091 243.31C161.053 243.399 161.046 243.497 161.072 243.59C161.204 244.112 162.294 244.673 162.855 244.711L162.918 244.698ZM161.45 243.262C161.492 243.244 161.537 243.234 161.582 243.234C161.628 243.234 161.673 243.244 161.715 243.262C162.158 243.555 162.498 243.98 162.685 244.478C162.119 244.36 161.62 244.028 161.292 243.552C161.255 243.501 161.292 243.401 161.406 243.312L161.45 243.262Z" fill="#407BFF"/>
<path d="M218.219 140.44C219.146 142.43 219.908 144.346 220.67 146.336C221.432 148.327 222.107 150.318 222.73 152.359C223.354 154.4 223.896 156.492 224.33 158.659C224.805 160.911 225.041 163.206 225.036 165.507C225.029 166.859 224.828 168.202 224.438 169.495C224.191 170.287 223.837 171.042 223.385 171.738C223.119 172.13 222.817 172.497 222.485 172.834L222.214 173.099C222.062 173.225 221.899 173.364 221.741 173.471C221.475 173.652 221.192 173.808 220.897 173.937C220.458 174.125 220.003 174.271 219.536 174.371C219.168 174.448 218.796 174.502 218.421 174.535C217.781 174.573 217.139 174.573 216.5 174.535C215.363 174.479 214.231 174.353 213.11 174.157C208.928 173.396 204.832 172.223 200.882 170.655L201.795 167.183C205.796 167.662 209.878 168.172 213.728 168.349C214.685 168.349 215.618 168.393 216.487 168.349C216.874 168.325 217.259 168.277 217.64 168.204C217.955 168.147 218.226 168.034 218.131 168.04C218.068 168.059 218.008 168.089 217.955 168.128C217.891 168.165 217.832 168.209 217.778 168.26C217.8 168.226 217.818 168.19 217.835 168.153C217.916 167.973 217.979 167.785 218.024 167.593C218.163 166.9 218.22 166.194 218.194 165.488C218.099 163.684 217.831 161.893 217.394 160.14C216.966 158.25 216.411 156.41 215.807 154.539C215.202 152.668 214.547 150.797 213.828 148.932C213.11 147.067 212.354 145.196 211.611 143.438L218.219 140.44Z" fill="#7F3E3B"/>
<path d="M203.534 168.128L199.357 165.778L197.259 170.302C197.259 170.302 202.142 172.337 203.169 171.064L203.534 168.128Z" fill="#7F3E3B"/>
<path d="M195.974 166.635L194.065 169.659L197.259 170.27L199.357 165.747L195.974 166.635Z" fill="#7F3E3B"/>
<path d="M208.479 144.031C207.679 146.04 206.841 147.962 205.959 149.909C205.077 151.855 204.195 153.771 203.263 155.686C201.385 159.585 199.282 163.372 196.963 167.026C196.333 167.958 195.703 168.884 194.997 169.81C194.645 170.277 194.254 170.736 193.838 171.209C193.611 171.448 193.429 171.669 193.164 171.915L192.786 172.28L192.572 172.482C191.972 172.994 191.266 173.369 190.505 173.578C190.104 173.692 189.696 173.778 189.283 173.836C188.61 173.917 187.932 173.944 187.255 173.918C186.085 173.882 184.919 173.766 183.764 173.571C179.493 172.816 175.31 171.63 171.278 170.031L172.198 166.553C176.274 167.045 180.438 167.568 184.357 167.731C185.281 167.766 186.206 167.753 187.129 167.694C187.5 167.663 187.869 167.604 188.231 167.517C188.349 167.487 188.463 167.445 188.571 167.391C188.609 167.391 188.571 167.347 188.401 167.454C188.338 167.487 188.281 167.529 188.231 167.58L188.294 167.505L188.471 167.309C188.584 167.196 188.723 167.007 188.855 166.856C189.113 166.528 189.378 166.175 189.642 165.791C190.165 165.041 190.676 164.21 191.18 163.365C192.188 161.677 193.126 159.882 194.046 158.067C194.966 156.253 195.848 154.401 196.717 152.536C198.45 148.819 200.144 144.976 201.757 141.259L208.479 144.031Z" fill="#7F3E3B"/>
<path d="M173.987 167.46L169.804 165.06L167.706 169.583C167.706 169.583 172.589 171.625 173.622 170.352L173.987 167.46Z" fill="#7F3E3B"/>
<path d="M166.427 165.973L164.512 168.991L167.706 169.602L169.804 165.079L166.427 165.973Z" fill="#7F3E3B"/>
<path d="M219.297 121.678L216.625 124.772L212.549 128.986L212.858 129.749C213.172 130.528 213.356 131.354 213.4 132.193C213.494 133.881 213.331 135.311 210.666 136.458C210.666 136.458 207.868 140.112 214.521 139.098C221.174 138.083 222.176 134.631 222.176 134.631C219.24 132.533 219.064 125.559 219.297 121.678Z" fill="#7F3E3B"/>
<path d="M205.732 118.188C205.732 118.604 205.525 118.957 205.247 118.969C204.97 118.982 204.75 118.654 204.743 118.239C204.737 117.823 204.958 117.47 205.228 117.457C205.499 117.445 205.726 117.772 205.732 118.188Z" fill="#263238"/>
<path d="M207.125 116.638C207.084 116.638 207.045 116.627 207.009 116.608C206.974 116.588 206.944 116.559 206.923 116.525C206.76 116.258 206.538 116.031 206.273 115.863C206.009 115.695 205.71 115.589 205.399 115.555C205.334 115.551 205.273 115.524 205.228 115.477C205.184 115.43 205.159 115.367 205.159 115.303C205.159 115.27 205.166 115.238 205.179 115.208C205.191 115.178 205.21 115.151 205.234 115.129C205.257 115.106 205.285 115.089 205.316 115.078C205.346 115.067 205.379 115.062 205.411 115.063C205.804 115.098 206.183 115.225 206.517 115.433C206.852 115.64 207.134 115.924 207.339 116.26C207.373 116.316 207.384 116.382 207.369 116.446C207.355 116.509 207.317 116.564 207.263 116.601C207.221 116.625 207.173 116.638 207.125 116.638Z" fill="#263238"/>
<path d="M205.581 118.44C205.242 119.574 204.755 120.659 204.132 121.666C204.391 121.812 204.679 121.899 204.975 121.92C205.271 121.942 205.569 121.898 205.846 121.792L205.581 118.44Z" fill="#630F0F"/>
<path d="M219.674 116.09C219.429 121.231 219.542 124.28 216.991 127.002C216.17 127.906 215.119 128.568 213.949 128.918C212.78 129.267 211.537 129.291 210.355 128.985C209.173 128.68 208.097 128.057 207.244 127.185C206.39 126.312 205.791 125.223 205.512 124.034C204.353 119.48 204.958 111.838 209.922 109.544C210.99 109.015 212.179 108.778 213.369 108.856C214.558 108.934 215.706 109.325 216.696 109.989C217.686 110.654 218.483 111.568 219.006 112.639C219.529 113.711 219.759 114.901 219.674 116.09Z" fill="#7F3E3B"/>
<path d="M222.006 117.81C221.264 119.991 220.132 122.018 218.667 123.795L211.976 125.055C211.976 125.055 206.69 122.844 208.102 119.202C207.207 118.446 207.541 116.109 208.171 114.824C208.678 115.24 209.318 115.46 209.974 115.443C210.631 115.425 211.258 115.172 211.743 114.729C211.946 115.046 212.219 115.312 212.541 115.507C212.863 115.701 213.226 115.818 213.601 115.849C213.976 115.88 214.353 115.824 214.702 115.686C215.052 115.547 215.365 115.33 215.617 115.051C215.904 115.328 216.251 115.535 216.631 115.656C217.012 115.777 217.415 115.808 217.809 115.747C218.203 115.686 218.578 115.535 218.904 115.304C219.23 115.074 219.498 114.772 219.687 114.421C220.098 114.678 220.58 114.799 221.064 114.767C221.548 114.736 222.009 114.553 222.384 114.244L222.478 114.156C222.569 115.393 222.408 116.636 222.006 117.81Z" fill="#263238"/>
<path opacity="0.1" d="M222.006 117.81C221.264 119.991 220.132 122.018 218.667 123.795L211.976 125.055C211.976 125.055 206.69 122.844 208.102 119.202C207.207 118.446 207.541 116.109 208.171 114.824C208.678 115.24 209.318 115.46 209.974 115.443C210.631 115.425 211.258 115.172 211.743 114.729C211.946 115.046 212.219 115.312 212.541 115.507C212.863 115.701 213.226 115.818 213.601 115.849C213.976 115.88 214.353 115.824 214.702 115.686C215.052 115.547 215.365 115.33 215.617 115.051C215.904 115.328 216.251 115.535 216.631 115.656C217.012 115.777 217.415 115.808 217.809 115.747C218.203 115.686 218.578 115.535 218.904 115.304C219.23 115.074 219.498 114.772 219.687 114.421C220.098 114.678 220.58 114.799 221.064 114.767C221.548 114.736 222.009 114.553 222.384 114.244L222.478 114.156C222.569 115.393 222.408 116.636 222.006 117.81Z" fill="white"/>
<path d="M222.969 111.573C223.151 111.999 223.201 112.469 223.114 112.924C223.026 113.378 222.805 113.797 222.478 114.125L222.384 114.213C222.009 114.521 221.548 114.704 221.064 114.736C220.58 114.768 220.098 114.646 219.687 114.389C219.498 114.74 219.23 115.043 218.904 115.273C218.578 115.503 218.203 115.655 217.809 115.716C217.415 115.777 217.012 115.746 216.631 115.625C216.251 115.504 215.904 115.297 215.617 115.019C215.365 115.298 215.052 115.516 214.702 115.654C214.353 115.793 213.976 115.849 213.601 115.818C213.226 115.787 212.863 115.669 212.541 115.475C212.219 115.281 211.945 115.015 211.743 114.698C211.258 115.141 210.631 115.394 209.974 115.411C209.318 115.429 208.678 115.209 208.171 114.792C207.903 114.585 207.687 114.317 207.541 114.011C207.506 113.944 207.477 113.875 207.453 113.803C207.399 113.865 207.34 113.922 207.276 113.973C206.962 114.224 206.577 114.372 206.176 114.396C205.774 114.419 205.375 114.318 205.033 114.106C204.763 113.918 204.546 113.663 204.405 113.365C204.264 113.068 204.202 112.739 204.227 112.411C204.234 112.274 204.257 112.139 204.296 112.008C204.246 112.103 204.183 112.19 204.107 112.266C203.957 112.411 203.779 112.525 203.585 112.6C203.39 112.676 203.183 112.712 202.974 112.707C202.765 112.702 202.56 112.655 202.369 112.57C202.179 112.484 202.007 112.362 201.864 112.209C201.719 111.99 201.62 111.743 201.573 111.483C201.526 111.224 201.532 110.958 201.591 110.701C201.65 110.444 201.761 110.202 201.916 109.989C202.071 109.776 202.268 109.597 202.494 109.463C202.854 109.253 203.263 109.144 203.679 109.148C204.334 109.157 204.968 109.378 205.487 109.778C205.287 109.38 205.233 108.925 205.335 108.493C205.438 108.06 205.689 107.677 206.046 107.411C206.403 107.146 206.842 107.014 207.286 107.04C207.729 107.066 208.15 107.248 208.473 107.554C208.403 107.232 208.431 106.897 208.553 106.591C208.676 106.286 208.887 106.024 209.16 105.84C210.029 105.336 211.478 105.771 212.184 106.615C212.184 106.615 213.154 104.271 214.83 104.536C215.195 104.586 216.915 105.349 216.871 105.966C216.88 106.005 216.88 106.046 216.871 106.086C216.895 106.037 216.922 105.991 216.953 105.947C217.138 105.697 217.382 105.497 217.664 105.364C217.945 105.231 218.255 105.169 218.566 105.185C219.239 105.235 219.897 105.41 220.506 105.701C221.81 106.237 223.196 106.835 223.952 108.026C224.708 109.217 224.324 111.195 222.969 111.573Z" fill="#263238"/>
<path d="M211.05 119.7C210.864 120.969 210.282 122.146 209.387 123.064C208.246 124.154 207.276 123.064 207.264 121.407C207.264 119.908 207.824 117.533 209.154 117.092C210.483 116.651 211.302 118.043 211.05 119.7Z" fill="#7F3E3B"/>
<path d="M231.21 136.42C230.737 135.16 228.532 133.9 227.178 133.9H226.283C224.478 133.916 222.676 134.032 220.884 134.247C217.283 134.645 213.707 135.247 210.174 136.049C208.548 136.477 206.98 137.019 205.732 137.485C204.145 138.115 203.212 138.537 203.212 138.537C203.212 138.537 204.951 150.117 205.852 161.62C206.35 168.028 206.142 174.384 206.306 178.756H233.182C234.108 173.502 233.963 168.922 234.038 159.434C234.076 153.72 233.15 141.605 231.21 136.42Z" fill="#263238"/>
<path opacity="0.2" d="M205.267 155.194C205.468 157.607 205.676 160.14 205.897 162.672C209.047 158.073 210.785 145.492 210.785 145.492L205.267 155.194Z" fill="black"/>
<path d="M201.688 139.381C197.839 141.549 194.065 152.611 194.065 152.611L202.885 159.258C206.249 156.076 211.169 148.182 211.705 145.026C212.562 140.213 207.856 135.929 201.688 139.381Z" fill="#263238"/>
<path d="M194.078 252.277C194.078 252.819 193.917 253.349 193.616 253.8C193.315 254.251 192.887 254.602 192.386 254.809C191.885 255.017 191.334 255.071 190.803 254.965C190.271 254.859 189.783 254.598 189.399 254.215C189.016 253.832 188.755 253.344 188.649 252.812C188.544 252.28 188.598 251.729 188.805 251.229C189.013 250.728 189.364 250.3 189.815 249.999C190.265 249.698 190.795 249.537 191.337 249.537C192.064 249.537 192.761 249.826 193.275 250.34C193.789 250.853 194.078 251.551 194.078 252.277Z" fill="#263238"/>
<path d="M234.99 252.277C234.99 252.819 235.15 253.349 235.452 253.8C235.753 254.251 236.181 254.602 236.682 254.809C237.182 255.017 237.733 255.071 238.265 254.965C238.796 254.859 239.285 254.598 239.668 254.215C240.051 253.832 240.312 253.344 240.418 252.812C240.524 252.28 240.47 251.729 240.262 251.229C240.055 250.728 239.703 250.3 239.253 249.999C238.802 249.698 238.272 249.537 237.73 249.537C237.003 249.537 236.306 249.826 235.792 250.34C235.278 250.853 234.99 251.551 234.99 252.277Z" fill="#263238"/>
<path d="M211.85 251.37C211.85 251.912 212.011 252.442 212.312 252.893C212.613 253.343 213.041 253.695 213.542 253.902C214.043 254.109 214.594 254.164 215.125 254.058C215.657 253.952 216.145 253.691 216.528 253.308C216.912 252.925 217.173 252.436 217.278 251.905C217.384 251.373 217.33 250.822 217.123 250.321C216.915 249.821 216.564 249.393 216.113 249.092C215.662 248.79 215.133 248.63 214.591 248.63C213.864 248.63 213.167 248.918 212.653 249.432C212.139 249.946 211.85 250.643 211.85 251.37Z" fill="#263238"/>
<path d="M213.74 248.019V242.72H205.89C204.349 242.718 202.812 242.862 201.298 243.149L186.682 245.984C186.354 246.048 186.062 246.233 185.864 246.502C185.666 246.771 185.577 247.105 185.615 247.437C185.652 247.769 185.813 248.075 186.066 248.293C186.318 248.512 186.644 248.628 186.978 248.617L213.74 248.019Z" fill="#263238"/>
<path d="M213.74 248.019V242.72H221.596C223.132 242.729 224.663 242.883 226.17 243.18L242.6 245.801C242.928 245.865 243.22 246.05 243.417 246.319C243.615 246.588 243.704 246.922 243.667 247.254C243.629 247.586 243.469 247.892 243.216 248.111C242.963 248.329 242.638 248.445 242.304 248.434L213.74 248.019Z" fill="#263238"/>
<path d="M218.597 218.465H208.876V242.726H218.597V218.465Z" fill="#263238"/>
<path d="M217.205 207.176H210.275V218.459H217.205V207.176Z" fill="#263238"/>
<path opacity="0.5" d="M210.275 210.489L217.205 212.234V207.176H210.275V210.489Z" fill="black"/>
<path d="M191.337 181.648H187.815V196.673H191.337V181.648Z" fill="#263238"/>
<path d="M208.996 207.176V141.851C208.995 140.629 209.256 139.421 209.762 138.308C210.267 137.195 211.005 136.203 211.926 135.4L216.581 131.324C218.149 129.948 220.166 129.193 222.251 129.2H239.066L247.269 137.97V207.176H208.996Z" fill="#407BFF"/>
<path d="M183.96 194.538H222.327V207.176H177.704C176.904 207.174 176.118 206.962 175.427 206.559C174.735 206.157 174.162 205.579 173.766 204.884C173.369 204.189 173.163 203.401 173.169 202.601C173.175 201.801 173.392 201.017 173.798 200.328C174.841 198.561 176.327 197.098 178.109 196.083C179.892 195.067 181.908 194.535 183.96 194.538Z" fill="#407BFF"/>
<path opacity="0.7" d="M247.268 137.97V207.176H177.704C176.904 207.174 176.118 206.962 175.427 206.559C174.735 206.157 174.162 205.579 173.766 204.884C173.369 204.189 173.163 203.401 173.169 202.601C173.175 201.801 173.392 201.017 173.798 200.327C174.841 198.562 176.328 197.099 178.11 196.083C179.892 195.068 181.908 194.535 183.96 194.538H203.282C204.804 194.538 206.264 193.933 207.34 192.857C208.416 191.78 209.021 190.321 209.021 188.798V141.851C209.02 140.629 209.281 139.421 209.787 138.308C210.292 137.195 211.03 136.203 211.951 135.4L216.606 131.324C218.174 129.948 220.191 129.193 222.276 129.2H239.091L247.268 137.97Z" fill="white"/>
<path d="M214.59 207.176V141.851C214.591 140.629 214.853 139.421 215.358 138.309C215.863 137.196 216.6 136.204 217.52 135.4L222.176 131.324C223.744 129.948 225.76 129.193 227.846 129.2H240.956C242.127 129.2 243.286 129.439 244.361 129.904C245.436 130.369 246.404 131.049 247.205 131.903L250.557 135.463C252.051 137.055 252.882 139.157 252.882 141.341V200.63C252.883 201.49 252.714 202.342 252.385 203.137C252.056 203.932 251.573 204.654 250.964 205.262C250.356 205.871 249.633 206.353 248.838 206.681C248.042 207.009 247.19 207.177 246.33 207.176H214.59Z" fill="#407BFF"/>
<path opacity="0.5" d="M214.59 207.176V141.851C214.591 140.629 214.853 139.421 215.358 138.309C215.863 137.196 216.6 136.204 217.52 135.4L222.176 131.324C223.744 129.948 225.76 129.193 227.846 129.2H240.956C242.127 129.2 243.286 129.439 244.361 129.904C245.436 130.369 246.404 131.049 247.205 131.903L250.557 135.463C252.051 137.055 252.882 139.157 252.882 141.341V200.63C252.883 201.49 252.714 202.342 252.385 203.137C252.056 203.932 251.573 204.654 250.964 205.262C250.356 205.871 249.633 206.353 248.838 206.681C248.042 207.009 247.19 207.177 246.33 207.176H214.59Z" fill="white"/>
<path d="M201.537 186.234C193.787 183.525 185.347 183.525 177.597 186.234C176.819 186.525 175.962 186.522 175.187 186.226C174.411 185.93 173.769 185.362 173.382 184.628C172.664 183.11 173.628 181.144 175.581 180.457C184.632 177.295 194.489 177.295 203.54 180.457C205.493 181.138 206.457 183.11 205.739 184.628C205.352 185.359 204.713 185.925 203.94 186.221C203.167 186.516 202.313 186.521 201.537 186.234Z" fill="#407BFF"/>
<path opacity="0.7" d="M201.537 186.234C193.787 183.525 185.347 183.525 177.597 186.234C176.819 186.525 175.962 186.522 175.187 186.226C174.411 185.93 173.769 185.362 173.382 184.628C172.664 183.11 173.628 181.144 175.581 180.457C184.632 177.295 194.489 177.295 203.54 180.457C205.493 181.138 206.457 183.11 205.739 184.628C205.352 185.359 204.713 185.925 203.94 186.221C203.167 186.516 202.313 186.521 201.537 186.234Z" fill="white"/>
<path d="M103.629 123.726C103.496 124.097 103.591 124.469 103.837 124.551C104.082 124.633 104.385 124.406 104.511 124.034C104.637 123.663 104.549 123.285 104.309 123.203C104.07 123.121 103.761 123.348 103.629 123.726Z" fill="#263238"/>
<path d="M103.56 124.11C103.611 125.407 103.838 126.692 104.234 127.928C103.916 128.018 103.583 128.038 103.257 127.988C102.931 127.938 102.62 127.819 102.344 127.638L103.56 124.11Z" fill="#A02724"/>
<path d="M103.024 121.193C103.047 121.203 103.071 121.208 103.096 121.208C103.121 121.208 103.146 121.203 103.169 121.193C103.446 121.105 103.739 121.082 104.027 121.125C104.314 121.169 104.587 121.278 104.826 121.445C104.85 121.463 104.879 121.477 104.908 121.484C104.938 121.492 104.97 121.493 105 121.488C105.03 121.484 105.06 121.473 105.086 121.457C105.112 121.441 105.135 121.42 105.153 121.395C105.188 121.352 105.207 121.299 105.207 121.243C105.207 121.188 105.188 121.135 105.153 121.092C104.857 120.872 104.513 120.726 104.149 120.666C103.786 120.606 103.413 120.633 103.062 120.746C103.004 120.767 102.957 120.81 102.93 120.865C102.903 120.92 102.898 120.983 102.917 121.042C102.927 121.076 102.946 121.107 102.971 121.132C102.997 121.157 103.028 121.176 103.062 121.187L103.024 121.193Z" fill="#263238"/>
<path d="M89.8129 125.099C90.5185 128.684 91.2178 135.255 88.7104 137.649C88.7104 137.649 89.6932 141.284 96.3586 141.284C103.686 141.284 99.8614 137.649 99.8614 137.649C95.8609 136.691 96.5035 133.724 97.2028 130.939L89.8129 125.099Z" fill="#B55B52"/>
<path d="M91.4445 118.597C90.1341 123.285 89.1261 125.962 90.6255 129.118C92.8746 133.875 100.737 134.492 102.879 129.049C104.511 124.009 106.123 118.736 102.249 115.353C101.402 114.603 100.377 114.081 99.272 113.838C98.1669 113.595 97.018 113.637 95.9341 113.962C94.8502 114.287 93.8671 114.883 93.0782 115.695C92.2892 116.506 91.7203 117.505 91.4256 118.597H91.4445Z" fill="#B55B52"/>
<path d="M86.3666 120.16C86.0264 118.434 85.9382 116.544 86.8013 115.007C87.6644 113.469 89.7497 112.531 91.268 113.425C91.7613 112.386 92.4911 111.477 93.3988 110.77C94.3066 110.064 95.3671 109.579 96.4956 109.356C97.6241 109.132 98.7891 109.176 99.8976 109.484C101.006 109.792 102.027 110.354 102.879 111.127C103.731 111.9 104.39 112.862 104.804 113.935C105.218 115.009 105.375 116.164 105.262 117.309C105.149 118.453 104.77 119.556 104.155 120.528C103.54 121.5 102.706 122.315 101.72 122.907C102.066 121.615 102.419 120.33 102.765 119.039C102.456 120.837 101.502 122.46 100.082 123.606L100.712 119.744C100.613 120.656 100.303 121.532 99.8061 122.303C99.3097 123.074 98.6404 123.718 97.8515 124.186L98.5886 121.483C98.2151 122.726 97.7389 123.935 97.1648 125.099C96.5348 125.824 96.1316 130.561 93.9644 130.712C86.5178 132.193 87.1604 124.192 86.3666 120.16Z" fill="#263238"/>
<path d="M96.39 122.403C96.2643 123.604 96.5341 124.814 97.1586 125.849C97.9965 127.197 99.225 126.68 99.6786 125.301C100.082 124.041 100.126 121.867 98.9604 120.991C97.7949 120.116 96.5664 120.96 96.39 122.403Z" fill="#B55B52"/>
<path d="M78.6303 167.813C77.8302 167.549 74.0817 165.621 73.4832 165.967C75.2157 161.557 76.293 160.871 77.0805 158.061C77.2998 157.363 77.3379 156.621 77.1913 155.905C77.0447 155.189 76.7183 154.521 76.2426 153.966C75.1338 152.479 74.7495 151.729 72.9099 151.912C70.3899 156.146 67.1832 161.362 65.9358 166.144C65.5137 167.75 65.2113 168.972 66.1689 170.333C67.0131 171.53 68.5692 172.009 70.0308 172.141C73.5399 172.456 78.75 171.814 78.6807 169.728C78.6429 168.412 78.6303 167.813 78.6303 167.813Z" fill="#B55B52"/>
<path d="M78.0383 167.656L81.0119 166.692L80.7473 172.066C80.7473 172.066 78.3659 172.147 77.0933 170.554L78.0383 167.656Z" fill="#B55B52"/>
<path d="M84.7287 166.604L84.3066 171.039L80.7471 172.066L81.0117 166.692L84.7287 166.604Z" fill="#B55B52"/>
<path d="M118.824 171.473C118.824 171.473 114.66 168.21 109.23 157.5C108.423 156.001 107.655 154.482 106.911 152.958C106.168 151.433 105.462 149.908 104.782 148.289L111.22 145.517C112.543 148.403 114.61 151.383 116.071 154.249C117.533 157.116 120.979 163.907 121.414 164.537C121.628 164.865 121.861 165.136 122.082 165.438L122.415 165.879L118.264 170.68L118.824 171.473Z" fill="#B55B52"/>
<path d="M124.274 150.57L123.014 149.033L122.422 146.733L126.309 143.124C126.903 143.879 127.432 144.684 127.89 145.53C127.99 145.725 128.038 145.942 128.029 146.16L127.871 150.211L124.274 150.57Z" fill="#B55B52"/>
<path d="M122.447 144.251L125.351 141.611L126.271 143.155L122.39 146.746L122.447 144.251Z" fill="#B55B52"/>
<path d="M124.33 149.461C124.431 149.026 124.519 149.877 124.809 149.537C125.666 148.504 126.913 148.396 127.657 149.537C128.4 150.677 127.764 161.897 126.579 165.419C125.792 167.756 125.37 169.621 123.354 171.045C122.539 171.674 121.547 172.031 120.519 172.066C120.007 172.072 119.503 171.932 119.068 171.661C118.633 171.391 118.284 171.003 118.062 170.541C117.432 169.073 119.687 163.781 120.481 162.074C122.97 156.7 123.14 154.539 124.33 149.461Z" fill="#B55B52"/>
<path d="M115.996 148.976L121.143 148.926C121.877 148.973 122.613 148.857 123.297 148.586C124.136 148.096 124.762 147.312 125.055 146.387C125.786 144.497 125.849 142.468 126.132 140.49C126.416 138.512 127.021 136.433 128.52 135.104C125.786 135.469 120.96 134.612 118.85 136.849C117.741 138.039 115.782 148.976 115.996 148.976Z" fill="#407BFF"/>
<path opacity="0.5" d="M115.996 148.976L121.143 148.926C121.877 148.973 122.613 148.857 123.297 148.586C124.136 148.096 124.762 147.312 125.055 146.387C125.786 144.497 125.849 142.468 126.132 140.49C126.416 138.512 127.021 136.433 128.52 135.104C125.786 135.469 120.96 134.612 118.85 136.849C117.741 138.039 115.782 148.976 115.996 148.976Z" fill="white"/>
<path d="M124.803 141.328C124.507 141.41 124.312 142.462 124.375 142.764L124.664 143.281L125.25 145.801L127.216 144.717L125.446 141.567C125.378 141.464 125.279 141.385 125.164 141.342C125.048 141.299 124.922 141.294 124.803 141.328Z" fill="#B55B52"/>
<path d="M80.4069 138.55C75.8079 139.602 69.0039 153.934 69.0039 153.934L78.2334 160.234C80.8914 156.441 83.2908 152.474 85.4154 148.359C88.1433 142.651 85.1067 137.472 80.4069 138.55Z" fill="#407BFF"/>
<path d="M87.1229 138.896C86.5937 137.743 86.0204 136.426 87.2111 136.017C88.5278 135.563 95.735 135.097 98.2172 135.948C98.5423 136.036 98.8469 136.187 99.1132 136.394C99.3796 136.6 99.6027 136.857 99.7695 137.15C99.9363 137.442 100.044 137.765 100.085 138.099C100.127 138.434 100.102 138.773 100.013 139.098V139.142L87.1229 138.896Z" fill="#263238"/>
<path opacity="0.2" d="M83.2482 146.828L76.6899 159.176L78.2334 160.234C78.2334 160.234 81.207 156.095 83.2734 152.517L83.2482 146.828Z" fill="black"/>
<path d="M108.36 144.856C109.356 149.896 107.031 161.866 107.056 181.396H80.8355C80.6654 177.452 83.5382 168.103 79.9661 149.48C79.8527 148.85 79.8023 138.676 80.4071 138.569C82.9462 138.125 85.5079 137.822 88.0805 137.661C91.7944 137.447 95.5175 137.447 99.2315 137.661C100.75 137.819 103.137 138.758 104.649 139.299C106.999 140.131 107.881 142.38 108.36 144.856Z" fill="#407BFF"/>
<path opacity="0.2" d="M101.43 149.865C102.111 154.004 104.826 159.472 107.529 162.685C107.636 160.335 107.875 157.878 107.869 155.994L101.43 149.865Z" fill="black"/>
<path d="M99.5399 143.64C98.9099 148.283 108.045 160.133 108.045 160.133L117.237 153.833C117.237 153.833 114.685 147.3 110.395 143.016C105.525 138.115 100.277 138.6 99.5399 143.64Z" fill="#407BFF"/>
<path d="M129.604 246.412H134.505L135.62 235.053H130.719L129.604 246.412Z" fill="#B55B52"/>
<path opacity="0.2" d="M135.545 235.74L134.978 241.592H130.07L130.643 235.74H135.545Z" fill="black"/>
<path d="M110.269 246.412H115.17L117.634 235.053H112.732L110.269 246.412Z" fill="#B55B52"/>
<g opacity="0.2">
<path d="M112.625 235.658H117.527L116.254 241.51H111.353L112.625 235.658Z" fill="black"/>
</g>
<path d="M134.782 244.207H129.434C129.323 244.22 129.22 244.271 129.143 244.352C129.066 244.432 129.02 244.537 129.011 244.648L128.041 250.255C127.985 250.473 128.008 250.703 128.105 250.905C128.201 251.108 128.366 251.27 128.57 251.364C128.629 251.373 128.688 251.373 128.747 251.364C130.675 251.326 133.466 251.175 135.891 251.175C138.732 251.175 141.183 251.37 144.509 251.37C146.525 251.37 147.086 248.737 146.242 248.504C142.405 247.42 139.274 247.307 135.96 244.654C135.63 244.375 135.215 244.217 134.782 244.207Z" fill="#263238"/>
<path d="M138.676 246.028C139.306 246.028 139.936 245.939 140.118 245.656C140.171 245.581 140.198 245.492 140.198 245.401C140.198 245.309 140.171 245.22 140.118 245.146C140.035 245.013 139.904 244.916 139.753 244.875C138.934 244.654 137.233 245.631 137.151 245.675C137.13 245.685 137.112 245.703 137.102 245.725C137.092 245.747 137.089 245.771 137.094 245.794C137.098 245.817 137.108 245.839 137.124 245.855C137.14 245.872 137.16 245.884 137.183 245.889C137.675 245.982 138.175 246.029 138.676 246.028ZM139.457 245.076H139.677C139.725 245.086 139.769 245.106 139.809 245.134C139.848 245.162 139.88 245.198 139.904 245.24C139.986 245.385 139.961 245.454 139.904 245.492C139.677 245.813 138.436 245.82 137.523 245.687C138.124 245.364 138.78 245.154 139.457 245.07V245.076Z" fill="#407BFF"/>
<path d="M137.195 245.889H137.246C137.838 245.624 139.01 244.566 138.915 243.999C138.915 243.867 138.802 243.709 138.487 243.671C138.259 243.654 138.033 243.727 137.857 243.873C137.227 244.383 137.101 245.706 137.094 245.763C137.092 245.783 137.094 245.804 137.102 245.823C137.11 245.841 137.122 245.858 137.139 245.87C137.155 245.882 137.175 245.889 137.195 245.889ZM138.392 243.905H138.462C138.669 243.905 138.682 244.012 138.688 244.037C138.745 244.371 137.945 245.202 137.34 245.561C137.392 245.007 137.611 244.482 137.97 244.056C138.09 243.96 138.239 243.907 138.392 243.905Z" fill="#407BFF"/>
<path d="M115.517 244.207H110.011C109.901 244.22 109.799 244.271 109.723 244.352C109.647 244.432 109.602 244.537 109.595 244.648L108.625 250.255C108.572 250.477 108.599 250.711 108.702 250.915C108.805 251.118 108.976 251.28 109.186 251.37C109.238 251.376 109.291 251.376 109.343 251.37C111.265 251.332 112.203 251.181 114.622 251.181C116.116 251.181 118.024 251.376 120.085 251.376C122.145 251.376 122.409 248.743 121.565 248.51C117.785 247.439 117.527 245.99 116.317 244.553C116.217 244.441 116.093 244.352 115.955 244.292C115.817 244.232 115.668 244.203 115.517 244.207Z" fill="#263238"/>
<path d="M118.396 246.651C118.604 246.68 118.815 246.666 119.018 246.611C119.22 246.556 119.409 246.46 119.574 246.33C119.632 246.25 119.663 246.154 119.663 246.056C119.663 245.958 119.632 245.862 119.574 245.782C119.537 245.713 119.485 245.653 119.421 245.606C119.358 245.559 119.286 245.527 119.209 245.511C118.49 245.341 117.136 246.267 117.079 246.305C117.061 246.319 117.047 246.337 117.038 246.358C117.029 246.379 117.026 246.402 117.029 246.425C117.032 246.447 117.043 246.467 117.059 246.483C117.074 246.499 117.095 246.509 117.117 246.513C117.537 246.606 117.966 246.652 118.396 246.651ZM119.026 245.719H119.164C119.209 245.727 119.251 245.745 119.288 245.771C119.325 245.797 119.356 245.831 119.379 245.87C119.486 246.065 119.423 246.141 119.379 246.173C119.171 246.443 118.169 246.45 117.432 246.33C117.905 246.005 118.446 245.79 119.013 245.7L119.026 245.719Z" fill="#407BFF"/>
<path d="M117.18 246.519C117.69 246.242 118.673 245.171 118.566 244.629C118.55 244.542 118.504 244.464 118.436 244.407C118.368 244.351 118.283 244.32 118.194 244.32C118.106 244.312 118.018 244.321 117.933 244.347C117.849 244.373 117.771 244.415 117.703 244.471C117.136 244.938 117.016 246.361 117.01 246.412C117.009 246.433 117.014 246.454 117.024 246.473C117.034 246.492 117.048 246.508 117.067 246.519H117.18ZM118.169 244.534H118.219C118.371 244.534 118.383 244.623 118.39 244.654C118.453 244.975 117.823 245.788 117.319 246.172C117.358 245.614 117.559 245.08 117.898 244.635C117.974 244.571 118.07 244.535 118.169 244.534Z" fill="#407BFF"/>
<path d="M99.1996 181.383C99.1996 181.383 122.415 190.972 127.216 198.337C124.362 217.073 119.24 238.417 119.24 238.417H110.508C110.522 229.182 111.278 219.963 112.77 210.848C114.03 187.948 72.8152 211.642 80.8225 181.383H99.1996Z" fill="#263238"/>
<path opacity="0.3" d="M115.252 197.19C113.626 197.286 112.006 197.473 110.401 197.751L105.317 198.532C107.939 200.735 110.707 202.76 113.601 204.593C115.359 205.708 117.274 206.779 119.347 206.785C121.678 206.785 128.003 203.799 126.957 200.693C125.912 197.587 117.898 197.077 115.252 197.19Z" fill="black"/>
<path d="M107.062 181.383C107.062 181.383 128.52 184.155 140.351 190.89C143.993 192.963 143.501 199.622 143.388 204.007C143.134 215.773 140.876 227.41 136.71 238.417H129.415C129.415 238.417 129.786 226.529 129.541 207.346C129.465 201.594 117.854 199.697 106.508 199.03C101.703 198.728 97.0783 197.089 93.1554 194.298C89.2325 191.507 86.1677 187.676 84.3066 183.236L83.5317 181.383H107.062Z" fill="#263238"/>
<path d="M138.48 236.464C138.518 236.464 138.008 239.91 138.008 239.91H127.928L127.65 236.836L138.48 236.464Z" fill="#407BFF"/>
<path d="M120.084 236.464C120.122 236.464 119.158 239.91 119.158 239.91H109.078L109.261 236.836L120.084 236.464Z" fill="#407BFF"/>
<path d="M93.0004 198.771L85.7743 252.013L84.4702 251.83L90.0457 198.368L93.0004 198.771Z" fill="#407BFF"/>
<path opacity="0.4" d="M92.7421 200.68L85.7743 252.013L84.4702 251.83L89.8063 200.668L92.7421 200.68Z" fill="black"/>
<path d="M118.402 200.674H77.4521C77.4521 200.06 77.5731 199.452 77.808 198.885C78.0429 198.318 78.3872 197.803 78.8213 197.368C79.2554 196.934 79.7707 196.59 80.3379 196.355C80.905 196.12 81.5129 195.999 82.1267 195.999H113.728C114.341 195.999 114.949 196.12 115.516 196.355C116.084 196.59 116.599 196.934 117.033 197.368C117.467 197.803 117.811 198.318 118.046 198.885C118.281 199.452 118.402 200.06 118.402 200.674Z" fill="#407BFF"/>
<path opacity="0.7" d="M118.402 200.674H77.4521C77.4521 200.06 77.5731 199.452 77.808 198.885C78.0429 198.318 78.3872 197.803 78.8213 197.368C79.2554 196.934 79.7707 196.59 80.3379 196.355C80.905 196.12 81.5129 195.999 82.1267 195.999H113.728C114.341 195.999 114.949 196.12 115.516 196.355C116.084 196.59 116.599 196.934 117.033 197.368C117.467 197.803 117.811 198.318 118.046 198.885C118.281 199.452 118.402 200.06 118.402 200.674Z" fill="white"/>
<path d="M79.3483 200.668L73.1743 252.435H74.4973L82.3282 200.668H79.3483Z" fill="#407BFF"/>
<path d="M116.506 200.668L122.68 252.435H121.357L113.532 200.668H116.506Z" fill="#407BFF"/>
<path opacity="0.4" d="M116.506 200.668L122.68 252.435H121.357L113.532 200.668H116.506Z" fill="black"/>
<path d="M108.247 200.668L108.366 252.435H107.05L105.267 200.668H108.247Z" fill="#407BFF"/>
</svg>
